<svg xmlns="http://www.w3.org/2000/svg" width="100%" height="auto" viewBox="0 0 1024 1024" version="1.1">
	<path d="M 151.500 283.693 C 140.643 285.150, 127.303 291.337, 118.668 298.921 C 111.080 305.584, 108.961 308.174, 104.684 316.010 C 97.279 329.580, 97.822 314.348, 97.363 521.170 C 96.914 722.911, 96.713 714.433, 102.246 727.336 C 109.146 743.426, 128.641 758.145, 147.501 761.505 C 159.222 763.593, 860.455 763.652, 872.151 761.566 C 890.969 758.209, 908.395 746.023, 916.685 730.422 C 923.435 717.719, 923.002 731.895, 922.985 524.356 C 922.969 318.337, 923.326 330.755, 917.038 317.579 C 910.849 304.612, 895.807 291.980, 879.976 286.457 L 871.500 283.500 513 283.395 C 315.825 283.337, 153.150 283.471, 151.500 283.693 M 154.746 313.082 C 143.163 315.823, 133.640 324.276, 130.509 334.597 C 129.216 338.860, 129.020 363.645, 129.011 524.624 C 128.999 728.800, 128.524 713.763, 135.267 722.572 C 139.201 727.709, 144.705 731.288, 151.932 733.407 C 156.855 734.851, 190.382 735, 510.092 735 C 851.610 735, 863.012 734.941, 868.819 733.133 C 877.972 730.285, 885.193 724.371, 888.518 717 C 889.386 715.075, 890.449 712.825, 890.879 712 C 891.309 711.175, 891.533 626.760, 891.376 524.411 L 891.092 338.322 888.895 332.449 C 886.128 325.054, 879.486 318.432, 871.394 315 L 865.500 312.500 512 312.347 C 308.847 312.259, 156.903 312.572, 154.746 313.082 M 355 415.988 C 325.391 422.423, 303.979 437.262, 290.006 461.033 C 273.618 488.911, 269.861 531.689, 280.559 568.605 C 286.523 589.189, 294.212 602.536, 307.870 616.018 C 319.533 627.531, 331.302 633.642, 349.500 637.636 C 359.306 639.788, 385.011 640.595, 394.578 639.052 C 424.300 634.257, 446.640 617.487, 459.956 589.975 C 464.311 580.977, 468.552 568.218, 467.528 567.194 C 466.859 566.526, 442.268 560.050, 440.278 560.019 C 439.606 560.009, 438.321 562.587, 437.424 565.750 C 436.526 568.913, 433.731 575.775, 431.213 581 C 420.813 602.579, 400.672 614.934, 375.815 614.983 C 348.297 615.037, 326.414 601.913, 314.986 578.500 C 308.462 565.133, 305.871 552.579, 305.286 531.500 C 304.737 511.712, 305.936 501.407, 310.520 486.500 C 319.847 456.168, 343.943 438.916, 376.815 439.035 C 395.264 439.102, 408.162 443.905, 418.730 454.645 C 423.608 459.602, 426.183 463.472, 430.600 472.488 C 433.703 478.819, 436.597 484, 437.032 484 C 437.467 484, 443.713 482.609, 450.911 480.909 C 459.829 478.802, 464 477.380, 464 476.446 C 464 474.009, 459.976 464.234, 455.981 456.965 C 443.853 434.902, 424.925 421.131, 399.518 415.888 C 387.401 413.387, 366.756 413.433, 355 415.988 M 686 526.500 L 686 636 700 636 L 714 636 714 526.500 L 714 417 700 417 L 686 417 686 526.500 M 517.734 430.691 L 505 438.382 505 458.191 L 505 478 495.500 478 L 486 478 486 488.500 L 486 499 495.500 499 L 505 499 505.026 548.750 C 505.061 616.714, 505.699 621.948, 514.965 630.279 C 520.298 635.073, 526.910 637.557, 537.062 638.578 C 543.641 639.239, 560.808 637.553, 562.287 636.100 C 562.720 635.674, 562.257 630.415, 561.258 624.413 L 559.443 613.500 549.972 613 C 539.796 612.463, 536.989 611.438, 534.250 607.260 C 532.649 604.818, 532.474 600.088, 532.201 551.795 L 531.902 499 545.451 499 L 559 499 559 488.500 L 559 478 545.500 478 L 532 478 532 450.500 C 532 435.375, 531.655 423, 531.234 423 C 530.813 423, 524.738 426.461, 517.734 430.691 M 636 474.935 C 627.439 477.549, 619.633 484.310, 613.648 494.296 C 611.738 497.484, 609.896 499.641, 609.555 499.089 C 609.214 498.538, 609.233 495.184, 609.596 491.636 C 609.960 488.088, 609.954 483.568, 609.583 481.592 L 608.909 478 596.955 478 L 585 478 585 557 L 585 636 598.413 636 L 611.825 636 612.262 586.250 C 612.665 540.343, 612.854 535.921, 614.713 529 C 615.821 524.875, 617.194 520.375, 617.764 519 C 619.925 513.789, 624.846 508.394, 630.077 505.501 C 637.330 501.490, 646.455 501.394, 655.810 505.229 L 662.120 507.816 663.162 505.158 C 665.808 498.411, 671 483.822, 671 483.134 C 671 481.968, 660.200 477.098, 654 475.469 C 648.125 473.925, 640.089 473.687, 636 474.935" stroke="none" fill="black" fill-rule="evenodd"/>
</svg>
