<?xml version="1.0" standalone="no"?>
<!DOCTYPE svg PUBLIC "-//W3C//DTD SVG 20010904//EN"
 "http://www.w3.org/TR/2001/REC-SVG-20010904/DTD/svg10.dtd">
<svg version="1.0" xmlns="http://www.w3.org/2000/svg"
 width="348.000000pt" height="348.000000pt" viewBox="0 0 348.000000 348.000000"
 preserveAspectRatio="xMidYMid meet">
<g transform="translate(0.000000,348.000000) scale(0.100000,-0.100000)"
fill="#000000" stroke="none">
<path d="M1030 3166 c-100 -35 -160 -69 -221 -127 -107 -101 -153 -223 -149
-394 1 -99 15 -150 64 -243 42 -79 129 -167 194 -197 21 -10 55 -25 77 -36 46
-21 165 -42 188 -33 25 9 75 -24 97 -64 12 -20 30 -53 42 -72 11 -19 33 -55
47 -79 14 -25 36 -61 48 -80 12 -20 30 -49 39 -66 9 -16 25 -39 36 -51 17 -19
17 -22 2 -35 -14 -11 -17 -11 -25 4 -15 25 -133 58 -234 64 -184 11 -354 -66
-457 -208 -78 -106 -108 -198 -108 -327 0 -139 53 -259 163 -373 68 -70 150
-117 246 -139 72 -17 217 -7 300 20 70 24 168 85 211 133 l27 30 36 -27 c21
-16 37 -32 37 -36 0 -10 116 -67 155 -76 17 -4 35 -10 40 -14 6 -4 69 -26 140
-48 93 -30 138 -49 158 -69 27 -26 197 -295 197 -311 0 -14 58 -42 88 -42 40
0 88 34 139 100 72 93 95 117 177 184 125 103 247 155 427 182 111 16 143 31
157 74 19 54 11 75 -118 289 -139 232 -158 278 -181 435 -6 44 -15 89 -19 100
-5 12 -16 48 -26 81 -53 186 -88 267 -172 389 -30 45 -69 101 -85 126 -17 25
-49 68 -71 97 -52 66 -105 135 -114 148 -10 14 -60 48 -100 69 -49 25 -127 23
-199 -5 -27 -11 -40 -11 -80 4 -68 24 -129 22 -190 -8 -28 -14 -58 -34 -67
-44 -16 -17 -21 -18 -50 -6 -49 21 -127 28 -160 15 -37 -14 -50 -2 -36 36 26
67 20 210 -12 299 -44 123 -97 192 -198 257 -115 75 -162 90 -290 93 -88 3
-116 -1 -170 -19z m282 -28 c33 -6 55 -15 52 -20 -4 -6 2 -8 14 -4 14 5 26 0
40 -19 13 -16 26 -23 36 -19 14 5 17 1 16 -22 -1 -3 16 -15 37 -26 49 -25 102
-95 139 -183 27 -66 29 -78 29 -211 0 -174 2 -178 89 -169 45 5 71 2 98 -9 41
-17 93 -22 83 -7 -3 5 11 15 30 21 19 6 35 15 35 18 0 10 75 32 109 32 16 0
52 -8 81 -17 49 -16 55 -16 105 1 29 10 70 18 92 18 46 -1 125 -30 117 -43 -3
-5 0 -9 5 -9 15 0 89 -78 107 -112 8 -15 21 -31 30 -36 9 -5 16 -13 16 -18 0
-9 56 -94 68 -104 17 -14 70 -89 70 -99 0 -6 3 -11 8 -11 4 0 13 -13 20 -29 7
-16 23 -40 35 -54 12 -13 23 -30 25 -38 2 -7 11 -31 21 -54 18 -38 32 -83 68
-205 9 -30 21 -71 28 -90 11 -30 30 -155 25 -162 -8 -13 100 -261 120 -278 4
-3 9 -12 13 -20 4 -8 11 -22 17 -30 5 -8 39 -65 74 -127 102 -177 98 -209 -31
-224 -94 -12 -183 -34 -240 -60 -23 -10 -46 -19 -50 -19 -5 0 -42 -20 -83 -44
-86 -50 -230 -184 -288 -268 -21 -32 -41 -55 -44 -52 -3 2 -11 -2 -18 -11 -7
-8 -28 -15 -46 -15 -31 0 -38 6 -89 84 -30 46 -62 100 -72 120 -9 20 -20 36
-25 36 -4 0 -8 5 -8 11 0 19 -61 99 -75 99 -8 0 -15 4 -15 8 0 9 -70 42 -88
42 -7 0 -20 4 -30 9 -9 5 -62 24 -117 42 -139 45 -213 80 -258 121 -46 42 -89
45 -118 9 -11 -13 -19 -21 -19 -18 0 3 -17 -10 -37 -28 -106 -98 -320 -133
-480 -80 -41 14 -82 32 -90 40 -8 8 -17 15 -21 15 -14 0 -88 77 -122 125 -19
28 -38 52 -41 55 -3 3 -15 34 -27 70 -25 77 -32 212 -13 280 7 25 13 46 12 47
-1 4 72 126 83 141 67 79 131 123 221 152 22 7 45 16 50 20 20 13 161 11 236
-4 41 -9 94 -25 117 -36 48 -23 65 -19 79 18 11 32 1 56 -89 207 -33 55 -76
127 -96 160 -58 98 -74 109 -177 119 -73 7 -115 17 -115 28 0 5 -5 6 -11 3
-12 -8 -66 12 -93 34 -16 13 -18 14 -12 1 4 -8 -1 -6 -11 5 -10 12 -26 24 -35
28 -10 3 -18 11 -18 17 0 5 -7 10 -15 10 -8 0 -15 3 -15 8 0 4 -14 21 -30 39
-17 18 -30 37 -30 42 0 6 -6 11 -12 12 -10 0 -10 2 0 6 9 3 7 9 -7 21 -37 33
-61 128 -58 236 1 66 6 101 14 103 7 3 9 11 6 20 -5 12 -3 14 8 8 10 -6 11 -5
3 4 -12 13 3 91 18 91 4 0 8 7 8 15 0 8 5 15 10 15 6 0 10 9 10 19 0 11 13 30
29 44 17 14 28 27 26 29 -2 2 14 15 35 28 22 14 40 28 40 32 0 5 6 8 13 8 7 0
28 11 47 23 19 13 62 29 95 35 33 6 69 14 80 16 24 5 100 -2 177 -16z"/>
<path d="M1105 3110 c-11 -5 -32 -9 -47 -9 -16 -1 -28 -6 -28 -12 0 -6 -6 -9
-12 -7 -7 3 -21 -4 -32 -13 -10 -10 -22 -16 -26 -14 -4 2 -21 -9 -39 -26 -18
-16 -37 -27 -42 -23 -5 3 -8 1 -7 -4 2 -5 -9 -24 -24 -41 -16 -17 -28 -35 -28
-40 0 -6 -6 -14 -12 -18 -28 -18 -82 -150 -72 -177 3 -9 2 -16 -2 -16 -22 0
-1 -157 29 -220 11 -25 20 -49 19 -53 -1 -5 2 -6 8 -2 5 3 10 1 10 -5 0 -6 10
-21 23 -34 39 -41 62 -71 59 -78 -1 -4 9 -10 23 -14 14 -3 25 -12 25 -20 0 -8
6 -11 17 -7 11 4 14 3 9 -5 -5 -8 0 -12 13 -12 12 0 21 -4 21 -10 0 -5 7 -7
16 -3 10 4 22 0 28 -9 17 -23 107 -31 135 -12 29 21 27 54 -9 121 -27 51 -29
58 -15 72 8 8 16 13 18 10 2 -2 32 -55 67 -116 35 -62 72 -122 82 -132 10 -11
18 -24 18 -29 0 -5 20 -40 45 -78 24 -38 45 -74 45 -80 0 -6 8 -22 18 -35 11
-13 30 -45 44 -70 44 -79 53 -94 58 -99 3 -3 21 -38 40 -77 19 -40 38 -73 42
-73 5 0 8 -8 8 -18 0 -10 4 -22 9 -27 18 -18 151 -290 151 -307 0 -18 -15 -25
-22 -10 -4 9 -163 46 -269 63 -59 10 -95 10 -155 1 -102 -15 -119 -18 -142
-31 -29 -16 -71 -83 -67 -111 1 -14 3 -33 4 -42 0 -9 7 -23 14 -30 7 -7 14
-17 14 -23 0 -5 21 -20 47 -33 41 -21 165 -37 263 -35 13 1 20 -3 17 -8 -3 -5
3 -9 13 -9 10 0 44 -13 76 -29 31 -16 57 -28 57 -25 0 2 9 -4 19 -13 56 -51
98 -76 112 -67 7 4 9 3 6 -3 -4 -5 4 -15 16 -21 54 -27 123 -55 135 -55 6 0
12 -4 12 -9 0 -4 6 -8 13 -8 8 0 27 -7 44 -15 16 -8 40 -16 54 -17 13 -2 26
-5 29 -8 8 -8 100 -32 150 -39 43 -7 90 4 90 20 0 7 44 61 85 103 11 12 20 24
20 29 0 4 3 6 7 5 4 -2 22 11 40 28 43 40 148 116 148 108 0 -3 11 1 25 10 13
9 31 16 40 16 8 0 15 5 15 12 0 6 3 8 7 5 3 -4 11 -3 17 1 14 11 221 76 296
94 44 11 55 18 60 38 4 14 4 30 0 35 -13 20 -58 141 -69 185 -6 25 -21 90 -32
145 -26 133 -54 255 -63 280 -4 11 -13 34 -19 50 -10 29 -74 135 -88 145 -3 3
-13 19 -22 37 -9 17 -22 37 -30 45 -7 7 -35 45 -62 83 -27 39 -52 72 -55 75
-4 3 -26 32 -50 65 -73 101 -122 141 -179 149 -52 7 -74 0 -118 -38 -13 -11
-23 -29 -23 -40 -1 -20 -1 -20 -20 3 -11 13 -36 36 -56 52 -59 47 -135 37
-193 -25 -19 -20 -26 -40 -29 -88 l-5 -61 -22 37 c-24 40 -91 105 -109 107 -6
0 -22 2 -36 4 -41 6 -85 -14 -121 -52 -26 -29 -34 -47 -37 -89 l-4 -53 -32 47
c-17 26 -37 58 -44 72 -17 34 -59 107 -86 150 -71 110 -103 165 -119 203 -6
15 -15 27 -19 27 -9 0 -11 54 -2 63 7 6 44 -35 44 -48 0 -4 14 -27 30 -52 17
-24 30 -48 30 -54 0 -5 5 -9 10 -9 6 0 9 -3 8 -7 -4 -13 50 -97 77 -123 32
-30 51 -21 79 35 31 62 34 173 6 256 -13 38 -27 69 -32 69 -4 0 -8 6 -8 13 0
8 -9 25 -20 38 -23 28 -26 32 -63 82 -16 21 -37 37 -48 37 -11 0 -18 4 -15 8
21 35 -267 97 -329 72z m206 -50 c82 -25 134 -60 185 -124 77 -96 106 -175
103 -279 -4 -128 -26 -168 -60 -109 -9 15 -46 79 -83 142 -97 167 -150 210
-261 210 -137 -1 -230 -89 -229 -220 1 -67 20 -117 83 -215 14 -22 35 -58 46
-80 12 -22 34 -60 49 -84 16 -25 24 -47 19 -52 -14 -14 -152 29 -205 62 -39
26 -84 69 -128 126 -16 20 -47 96 -60 145 -16 61 -6 154 25 229 84 208 305
315 516 249z m-54 -202 c12 -6 20 -15 17 -19 -3 -5 1 -6 8 -4 8 3 22 0 31 -8
14 -9 16 -18 10 -35 l-9 -23 -26 26 c-21 20 -38 27 -78 29 -28 2 -53 -1 -56
-5 -3 -5 -9 -7 -13 -5 -8 5 -53 -34 -84 -73 -36 -44 -22 -108 47 -215 38 -60
46 -100 21 -110 -10 -4 -15 1 -15 16 0 12 -3 18 -7 15 -6 -7 -11 2 -69 113
-36 67 -47 150 -21 150 9 0 9 2 -1 8 -14 10 -6 42 11 42 6 0 7 3 4 7 -11 10
62 75 78 69 8 -3 14 0 12 7 -1 7 4 11 11 10 6 -2 12 1 12 6 0 12 90 11 117 -1z
m-15 -77 c29 -11 49 -40 166 -241 50 -85 105 -177 121 -205 78 -126 174 -287
213 -355 23 -41 48 -81 55 -88 7 -7 13 -20 13 -28 0 -8 6 -14 13 -14 20 0 58
31 55 43 -2 7 -49 89 -105 183 -62 104 -103 182 -103 199 0 34 46 94 84 110
56 24 111 -9 168 -99 18 -28 35 -53 38 -56 4 -3 37 -51 74 -107 37 -57 72
-103 77 -103 20 0 49 21 49 36 0 8 -9 27 -19 42 -59 83 -129 202 -133 227 -3
15 -2 40 3 54 12 33 67 71 102 71 39 0 120 -86 212 -224 43 -64 84 -116 92
-116 25 0 55 21 49 35 -2 7 -41 66 -85 130 -45 64 -81 119 -81 123 0 15 60 43
93 44 57 2 80 -20 217 -202 39 -52 76 -102 83 -110 35 -43 166 -250 176 -280
29 -80 72 -268 87 -377 3 -26 10 -55 14 -63 4 -8 11 -33 15 -54 3 -22 22 -68
41 -103 19 -35 34 -66 34 -68 0 -3 -12 -5 -26 -5 -28 0 -194 -43 -259 -67 -88
-33 -210 -97 -274 -143 -72 -52 -198 -181 -212 -217 l-8 -22 -68 21 c-186 56
-288 91 -341 117 -113 56 -128 65 -184 108 -31 24 -60 43 -64 43 -4 0 -27 9
-50 21 -43 20 -92 30 -259 49 -101 11 -130 30 -144 93 -8 32 -5 39 23 70 38
42 93 53 251 51 82 -2 125 -9 235 -39 174 -48 180 -49 180 -37 0 24 -284 584
-316 623 -7 8 -26 41 -43 74 -18 33 -47 85 -66 115 -19 30 -39 64 -45 75 -67
121 -224 380 -232 383 -4 2 -8 7 -8 12 0 5 -18 39 -40 78 -22 38 -40 80 -40
94 0 14 16 43 36 66 30 36 41 42 74 42 21 0 49 -4 62 -9z"/>
<path d="M1085 1669 c-16 -6 -37 -13 -45 -16 -8 -4 -18 -7 -22 -7 -27 -4 -131
-88 -166 -135 -84 -112 -107 -185 -99 -312 3 -50 10 -96 16 -102 5 -7 10 -16
10 -22 1 -19 34 -85 43 -85 4 0 8 -5 8 -10 0 -13 12 -28 66 -84 39 -40 118
-86 147 -86 7 0 17 -4 23 -9 11 -11 62 -21 129 -25 82 -4 218 42 271 93 12 11
24 18 27 15 2 -3 10 9 16 25 19 45 -13 90 -65 90 -23 -1 -154 10 -211 17 -80
10 -149 105 -141 193 5 49 44 121 66 121 7 0 10 5 7 10 -3 6 2 10 12 10 11 0
23 4 29 9 5 5 87 14 182 19 109 6 178 14 187 22 57 47 -48 179 -192 243 -58
26 -83 31 -168 33 -55 2 -113 -1 -130 -7z m177 -29 c52 -8 83 -18 158 -54 32
-15 127 -112 146 -149 15 -28 15 -29 -8 -21 -61 20 -335 -4 -395 -35 -138 -71
-149 -259 -20 -365 l45 -37 148 -10 c82 -6 153 -14 157 -19 15 -14 -90 -87
-158 -110 -104 -35 -194 -32 -285 7 -85 37 -101 47 -145 91 -51 52 -97 140
-113 217 -11 58 -1 160 21 222 16 42 88 147 117 170 55 43 131 79 189 89 86
16 77 15 143 4z"/>
<path d="M3025 1103 c-44 -6 -219 -61 -279 -87 -28 -13 -58 -26 -66 -30 -44
-19 -115 -67 -113 -75 2 -6 -4 -8 -12 -5 -20 8 -171 -148 -206 -214 -16 -30
-29 -68 -29 -84 0 -27 24 -86 39 -98 4 -3 18 -23 31 -45 56 -95 91 -103 154
-33 84 94 191 198 203 198 2 0 11 6 18 13 30 26 44 37 50 37 3 0 23 11 44 24
21 13 57 30 79 37 23 7 42 15 42 18 0 4 8 7 18 8 27 1 122 27 122 33 0 3 26 7
57 8 59 4 97 17 88 32 -3 4 0 10 6 12 14 5 2 68 -12 68 -5 0 -9 4 -9 9 0 14
-70 132 -93 159 -21 22 -51 26 -132 15z m110 -36 c4 -13 34 -66 70 -125 25
-41 45 -77 45 -81 0 -3 -44 -14 -97 -23 -140 -23 -174 -33 -265 -79 -144 -72
-237 -148 -372 -303 -39 -45 -60 -50 -71 -16 -3 10 -26 49 -50 86 -25 38 -45
75 -45 84 0 9 11 31 25 50 14 19 25 40 25 47 0 25 147 156 235 209 116 69 222
109 395 150 44 10 103 11 105 1z"/>
<path d="M202 2513 c-68 -70 -121 -132 -118 -138 3 -9 22 -9 80 0 45 7 79 8
82 3 3 -5 4 -64 3 -131 l-3 -122 84 0 85 0 -1 30 c-1 17 -3 75 -5 130 l-4 100
25 -1 c14 -1 55 -5 93 -9 40 -4 67 -3 67 2 0 10 -245 256 -258 260 -4 1 -62
-55 -130 -124z m212 4 c34 -33 60 -64 59 -69 -2 -4 3 -8 11 -8 8 0 16 -6 19
-14 5 -13 -11 -15 -48 -6 -22 5 -42 -1 -62 -20 -20 -18 -21 -27 -17 -130 l4
-110 -50 0 -50 0 0 94 c0 94 -10 144 -33 158 -6 4 -28 4 -49 2 -25 -4 -38 -2
-38 6 0 6 5 8 10 5 6 -3 10 1 10 9 0 9 5 16 10 16 6 0 10 7 10 15 0 9 8 19 18
22 9 4 25 18 36 31 10 13 30 28 43 33 15 6 23 15 20 23 -12 30 38 1 97 -57z"/>
<path d="M210 2469 c0 -5 5 -7 10 -4 6 3 10 8 10 11 0 2 -4 4 -10 4 -5 0 -10
-5 -10 -11z"/>
<path d="M254 1758 c-3 -4 -4 -61 -3 -128 1 -66 0 -122 -2 -124 -2 -2 -43 2
-92 9 -48 6 -87 8 -87 4 0 -13 251 -254 264 -254 15 0 251 243 243 251 -3 3
-34 2 -69 -2 -35 -5 -70 -9 -78 -9 -13 0 -15 21 -15 130 l0 130 -78 0 c-44 0
-81 -3 -83 -7z m124 -93 c-2 -36 0 -66 5 -68 6 -2 6 -11 -1 -23 -7 -14 -6 -28
4 -54 18 -42 30 -50 69 -46 16 2 33 2 37 0 4 -3 -30 -42 -75 -88 -71 -73 -84
-82 -94 -68 -7 9 -13 13 -13 9 0 -4 -31 25 -70 63 -38 38 -70 74 -70 78 0 5
18 8 40 6 32 -3 43 1 58 20 15 20 18 38 15 118 -1 51 -1 99 2 106 3 7 23 12
51 12 l46 0 -4 -65z"/>
</g>
</svg>
