<?xml version="1.0" standalone="no"?>
<!DOCTYPE svg PUBLIC "-//W3C//DTD SVG 20010904//EN"
 "http://www.w3.org/TR/2001/REC-SVG-20010904/DTD/svg10.dtd">
<svg version="1.0" xmlns="http://www.w3.org/2000/svg"
 width="348.000000pt" height="348.000000pt" viewBox="0 0 348.000000 348.000000"
 preserveAspectRatio="xMidYMid meet">
<g transform="translate(0.000000,348.000000) scale(0.100000,-0.100000)"
fill="#000000" stroke="none">
<path d="M1310 3370 c-123 -23 -179 -51 -259 -130 -80 -78 -139 -173 -157
-250 -47 -200 -1 -374 138 -512 37 -36 80 -72 95 -80 59 -28 57 3 39 -730 -2
-49 -6 -91 -9 -95 -4 -3 -2 -12 4 -19 7 -8 7 -19 1 -29 -7 -14 -12 -11 -30 19
-12 20 -30 39 -39 43 -10 4 -20 9 -23 13 -9 11 -104 65 -195 110 -83 41 -96
45 -165 45 -92 0 -128 -19 -172 -90 -43 -69 -50 -153 -18 -216 21 -41 57 -79
99 -103 77 -45 142 -101 176 -153 75 -113 85 -129 85 -141 0 -6 11 -36 25 -65
25 -52 93 -140 217 -279 34 -38 69 -84 76 -101 10 -23 14 -83 14 -217 1 -209
7 -232 65 -257 46 -19 103 -11 181 24 72 32 104 41 224 57 176 25 322 3 478
-72 69 -34 142 -37 165 -7 32 41 37 75 41 300 5 258 16 346 50 422 43 94 49
112 80 238 21 89 21 89 34 131 23 79 23 269 0 512 -18 197 -25 241 -46 286
-36 79 -87 120 -170 139 -40 10 -74 23 -81 34 -61 84 -106 107 -212 109 -78 1
-84 2 -98 26 -19 30 -97 83 -135 92 -37 8 -35 21 6 61 99 96 149 232 143 385
-3 84 -8 105 -42 185 -34 76 -50 101 -112 161 -40 40 -90 79 -111 88 -20 10
-45 22 -56 27 -64 36 -218 56 -306 39z m223 -41 c9 0 17 -5 17 -10 0 -6 4 -7
10 -4 10 6 72 -24 78 -37 2 -5 10 -8 18 -8 8 0 14 -5 14 -11 0 -5 4 -8 10 -4
20 13 171 -161 154 -178 -3 -3 4 -10 15 -16 18 -10 19 -15 9 -31 -15 -24 -34
-11 -43 32 -5 20 -10 26 -15 18 -5 -8 -10 -3 -14 15 -6 24 -36 66 -36 51 0 -3
-16 12 -36 34 -20 22 -43 40 -50 40 -8 0 -14 5 -14 10 0 6 -6 10 -14 10 -8 0
-16 3 -18 8 -5 11 -100 45 -130 46 -14 1 -29 3 -32 6 -5 6 -122 -4 -166 -14
-26 -6 -64 -22 -90 -37 -8 -5 -23 -12 -32 -15 -10 -4 -18 -10 -18 -15 0 -5 -7
-9 -15 -9 -8 0 -15 -4 -15 -10 0 -5 -7 -10 -15 -10 -8 0 -15 -6 -15 -12 0 -7
-12 -24 -25 -37 -14 -13 -25 -28 -26 -35 0 -6 -4 -2 -8 9 -6 15 -9 11 -14 -23
-4 -23 -12 -42 -17 -42 -6 0 -10 -7 -10 -15 0 -8 -4 -15 -9 -15 -6 0 -10 -8
-9 -17 0 -10 -3 -34 -7 -53 -12 -60 -13 -210 -2 -203 6 4 8 0 4 -10 -3 -10 -2
-17 3 -17 5 0 7 -7 4 -15 -4 -8 -1 -15 5 -15 6 0 11 -9 11 -20 0 -11 4 -20 9
-20 5 0 12 -14 16 -31 4 -17 9 -28 13 -25 3 3 12 -3 19 -14 12 -18 13 -24 1
-37 -11 -14 -10 -16 8 -11 15 4 32 -3 54 -22 21 -18 40 -26 54 -23 17 4 19 3
6 -7 -12 -9 -12 -11 -1 -8 8 3 23 15 33 29 16 21 19 45 19 179 1 85 4 159 7
165 3 5 5 26 4 45 -2 26 0 31 7 20 8 -12 11 -8 11 17 0 42 52 97 105 112 48
13 98 14 91 2 -4 -5 3 -7 13 -4 33 9 91 -27 121 -75 27 -43 28 -52 30 -176 3
-226 5 -259 18 -264 7 -2 10 -8 7 -13 -3 -4 7 -12 22 -15 17 -5 28 -3 31 4 2
7 7 10 12 7 8 -5 39 29 70 75 8 12 20 28 26 34 52 55 82 248 54 345 -13 45 3
69 28 44 14 -14 17 -39 17 -147 0 -116 -3 -137 -24 -186 -25 -58 -67 -122
-113 -174 -28 -30 -37 -66 -18 -66 5 0 9 -5 7 -11 -1 -6 17 -22 41 -34 23 -13
42 -20 42 -17 0 4 22 -17 49 -46 l50 -54 63 3 c35 1 70 -1 78 -4 8 -4 24 -8
36 -10 11 -1 47 -29 79 -60 57 -55 68 -62 125 -71 14 -3 27 -5 30 -6 3 -2 8
-2 13 -1 4 0 7 -4 7 -9 0 -6 4 -10 9 -10 19 0 61 -48 81 -92 17 -40 27 -107
46 -328 3 -30 7 -68 9 -85 12 -82 4 -274 -14 -355 -44 -195 -61 -266 -71 -282
-19 -34 -52 -124 -69 -193 -14 -53 -19 -118 -20 -270 -4 -277 -6 -298 -32
-327 -11 -13 -27 -17 -56 -15 -23 1 -39 4 -37 6 5 5 -66 40 -82 41 -6 0 -25 7
-43 16 -18 9 -43 17 -57 18 -13 0 -24 4 -24 7 0 20 -277 27 -361 10 -82 -18
-155 -37 -170 -47 -8 -5 -16 -9 -19 -10 -3 0 -18 -6 -35 -13 -16 -7 -50 -15
-75 -18 -37 -4 -49 -1 -67 16 -22 21 -23 28 -23 206 0 229 -4 243 -102 346
-20 21 -34 39 -31 39 3 0 -13 18 -36 40 -22 22 -41 43 -41 46 0 12 -38 53 -44
47 -3 -3 -6 -1 -6 6 0 13 -39 71 -55 83 -5 4 -6 8 -2 8 4 0 2 10 -5 22 -7 13
-13 28 -14 33 0 6 -2 15 -2 22 -1 7 -15 27 -30 45 -15 18 -36 50 -47 71 -11
21 -36 56 -55 76 -36 38 -160 131 -176 131 -5 0 -20 17 -34 38 -21 31 -25 49
-25 107 0 65 3 74 32 112 58 72 146 80 267 24 34 -15 64 -28 67 -27 4 1 15 -6
25 -15 11 -9 29 -20 42 -23 12 -4 22 -11 22 -15 0 -4 20 -17 44 -30 25 -12 46
-25 48 -29 2 -4 20 -21 41 -36 25 -19 35 -23 31 -12 -4 10 -1 16 8 16 10 0 15
11 16 33 1 17 4 59 7 92 8 85 12 165 19 450 7 288 6 294 -80 354 -51 36 -124
106 -124 119 0 4 -11 20 -26 35 -14 15 -22 31 -19 37 3 5 -2 13 -11 18 -11 6
-18 27 -22 62 -3 35 -8 47 -14 38 -13 -19 -2 198 12 247 7 22 18 47 25 55 7 8
16 25 19 37 4 11 20 36 37 55 16 18 37 45 46 61 10 15 21 27 25 27 4 0 30 16
57 35 26 19 56 35 65 35 9 0 16 4 16 8 0 5 6 9 13 10 21 1 71 13 76 18 2 2 50
2 105 -1 56 -3 109 -5 119 -6z m53 -105 c85 -42 174 -129 207 -202 25 -57 35
-218 17 -290 -17 -71 -119 -212 -153 -212 -4 0 -7 85 -6 189 1 104 -2 195 -7
202 -5 8 -9 17 -9 20 0 22 -45 80 -84 109 -40 30 -55 35 -113 38 -100 6 -164
-24 -210 -99 -29 -47 -37 -102 -40 -287 -2 -101 -7 -186 -11 -189 -16 -10
-128 117 -151 170 -55 125 -50 280 12 381 56 90 128 149 227 184 87 30 93 31
173 27 58 -4 88 -12 148 -41z"/>
<path d="M1355 2989 c-53 -29 -85 -67 -86 -104 -1 -16 -3 -226 -4 -465 -2
-239 -7 -457 -10 -485 -3 -27 -10 -135 -15 -240 -14 -255 -20 -328 -30 -338
-4 -5 -48 31 -96 80 -103 102 -150 143 -164 143 -5 0 -10 4 -10 9 0 5 -10 13
-22 17 -12 3 -28 13 -36 20 -7 8 -21 14 -31 14 -9 0 -21 4 -27 9 -20 18 -117
42 -127 32 -6 -6 -21 -11 -32 -11 -42 0 -85 -72 -85 -140 0 -23 13 -45 63
-103 9 -11 17 -16 17 -12 0 4 8 -1 18 -11 9 -10 24 -23 33 -29 66 -41 135 -95
122 -95 -4 0 5 -11 21 -25 16 -14 25 -25 21 -25 -4 0 -1 -8 7 -17 19 -22 58
-107 58 -127 0 -8 4 -16 8 -18 4 -1 30 -39 56 -83 27 -44 52 -81 57 -83 5 -2
9 -9 9 -15 0 -8 46 -66 115 -143 69 -78 141 -144 152 -140 9 4 11 1 7 -6 -5
-8 -2 -9 12 -3 130 53 160 62 269 76 114 14 117 14 195 5 132 -15 243 -41 400
-92 9 -3 28 4 43 16 22 17 27 30 27 64 0 48 35 197 56 238 8 15 14 29 14 30
-2 4 9 37 26 78 7 19 28 80 46 135 32 97 33 105 33 270 0 163 -3 218 -24 405
-19 169 -39 219 -101 250 -46 23 -85 25 -120 5 -35 -20 -40 -19 -40 10 0 33
-36 101 -67 125 -19 15 -41 20 -82 20 -66 0 -88 -15 -126 -80 -14 -25 -25 -38
-24 -30 7 45 -15 147 -39 178 -64 83 -194 73 -252 -20 l-21 -33 2 300 c2 247
5 303 17 318 13 15 13 17 -2 17 -10 0 -23 15 -32 36 -17 40 -37 64 -53 64 -6
0 -11 4 -11 8 0 5 -6 9 -12 10 -7 1 -29 4 -48 7 -24 3 -47 -2 -75 -16z m118
-30 c12 -6 32 -23 43 -37 21 -26 21 -27 16 -560 -5 -553 -5 -552 33 -552 35 0
38 16 42 226 2 114 8 215 14 226 16 30 87 61 127 54 69 -11 89 -52 97 -197 4
-63 8 -143 10 -179 2 -36 4 -77 5 -92 0 -21 6 -29 25 -34 39 -10 51 8 49 73
-8 229 -4 261 34 289 46 34 118 24 148 -21 23 -35 40 -150 43 -290 1 -65 5
-123 7 -127 3 -4 21 -8 40 -8 l36 0 -8 133 c-12 211 -14 192 21 189 107 -11
130 -45 145 -219 6 -65 13 -125 15 -133 2 -8 7 -58 10 -110 20 -306 16 -331
-96 -625 -52 -137 -69 -203 -74 -281 -2 -36 -6 -68 -8 -70 -2 -2 -24 5 -49 16
-208 92 -619 115 -755 42 -12 -7 -30 -12 -39 -12 -10 0 -26 -8 -36 -17 -18
-17 -22 -14 -98 65 -91 94 -213 248 -242 307 -11 22 -24 42 -27 45 -4 3 -20
37 -35 75 -16 39 -35 77 -43 86 -7 8 -13 20 -13 25 0 14 -109 117 -157 147
-60 38 -112 86 -129 119 -14 26 -14 34 1 72 14 36 23 46 56 56 41 14 40 14
169 -43 77 -34 131 -76 257 -204 67 -68 126 -123 132 -123 6 0 11 10 12 23 0
12 5 76 10 142 6 66 12 163 14 215 2 52 8 142 13 200 5 58 10 316 11 573 1 305
5 476 12 489 25 47 112 73 162 47z"/>
<path d="M1241 2664 c0 -11 3 -14 6 -6 3 7 2 16 -1 19 -3 4 -6 -2 -5 -13z"/>
<path d="M1545 621 c-91 -22 -186 -66 -218 -99 -24 -25 -26 -35 -27 -127 -2
-132 -3 -129 19 -153 24 -28 74 -29 126 -2 22 11 48 20 58 20 17 0 69 12 117
27 16 5 94 11 175 13 73 3 225 -22 295 -48 8 -3 17 -6 20 -7 3 -1 21 -9 41
-18 112 -50 130 -30 132 144 2 146 -6 155 -156 203 -158 50 -203 58 -367 61
-111 2 -161 -1 -215 -14z m390 -35 c39 -8 88 -20 110 -26 22 -6 54 -15 70 -19
17 -4 53 -19 80 -32 l50 -24 3 -127 c1 -71 -1 -128 -6 -128 -4 0 -30 11 -58
24 -58 27 -157 59 -234 75 -63 14 -241 13 -315 -1 -27 -5 -60 -10 -72 -11 -12
-1 -25 -5 -29 -10 -4 -4 -17 -7 -29 -7 -12 0 -37 -7 -55 -16 -48 -25 -98 -34
-108 -20 -11 14 -14 207 -4 222 4 6 23 19 42 29 19 9 42 23 50 30 8 7 29 15
45 18 17 3 57 12 90 20 80 20 281 21 370 3z"/>
<path d="M2260 2991 c-72 -73 -128 -136 -126 -140 3 -4 42 -2 86 4 44 6 83 8
86 3 3 -4 5 -58 4 -120 -1 -62 -1 -119 -1 -126 1 -10 21 -12 84 -10 80 4 82 4
81 28 -1 14 -3 72 -5 130 l-2 105 24 -1 c13 -1 55 -5 92 -9 56 -6 68 -5 65 6
-1 8 -60 70 -130 138 l-127 124 -131 -132z m150 71 c0 -4 -6 -14 -12 -22 -11
-12 -10 -12 2 -2 13 9 23 5 52 -21 19 -18 33 -38 30 -46 -3 -8 0 -11 6 -7 12
7 58 -29 74 -58 10 -18 7 -18 -39 -12 -77 10 -86 -6 -84 -144 l2 -110 -51 0
-50 0 0 101 c0 129 -14 160 -72 154 -42 -4 -48 6 -18 32 11 10 20 23 20 30 0
7 4 13 10 13 13 0 70 57 70 70 0 5 7 10 15 10 8 0 15 5 15 10 0 6 7 10 15 10
8 0 15 -4 15 -8z"/>
<path d="M2714 2608 c-4 -6 -6 -39 -5 -72 2 -34 4 -89 5 -123 l1 -62 -45 6
c-25 3 -64 9 -88 13 -23 4 -45 4 -47 -1 -5 -7 236 -250 255 -257 10 -4 250
238 250 252 0 5 -26 5 -62 1 -115 -14 -103 -28 -100 122 l3 131 -80 1 c-51 1
-83 -3 -87 -11z m128 -81 c2 -29 0 -76 -3 -106 -4 -43 -2 -58 14 -78 17 -21
26 -24 53 -20 19 3 36 2 39 -2 2 -5 -26 -40 -65 -78 -51 -52 -72 -67 -80 -59
-8 8 -9 6 -4 -7 5 -14 2 -16 -12 -10 -23 8 -83 70 -76 78 3 3 1 5 -5 5 -13 0
-73 57 -73 70 0 6 19 7 48 3 26 -3 44 -2 40 2 -4 4 2 17 13 28 16 18 19 32 15
98 -5 111 -1 127 38 131 49 5 55 0 58 -55z"/>
<path d="M545 1230 c3 -5 8 -10 11 -10 2 0 4 5 4 10 0 6 -5 10 -11 10 -5 0 -7
-4 -4 -10z"/>
</g>
</svg>
