<svg xmlns="http://www.w3.org/2000/svg" width="100%" height="auto" viewBox="0 0 348 348" version="1.1">
	<path d="M 160.627 23.616 C 153.912 30.140, 149.133 35.528, 149.627 36.016 C 150.116 36.500, 153.576 36.493, 157.500 36 C 161.655 35.478, 164.873 35.490, 165.418 36.029 C 165.923 36.528, 166.228 42.351, 166.095 48.968 L 165.854 61 173.896 61 L 181.938 61 182.219 48.750 L 182.500 36.500 190 36.445 C 194.125 36.414, 197.943 36.302, 198.484 36.195 C 199.975 35.900, 175.759 11.994, 174.016 12.039 C 173.182 12.061, 167.157 17.270, 160.627 23.616 M 150.500 67.101 C 137.578 68.947, 116.759 75.069, 107.550 79.731 C 99.026 84.046, 95.427 86.895, 93.177 91.110 C 91.195 94.823, 91.002 96.638, 91.026 111.345 C 91.040 120.230, 91.489 134.475, 92.024 143 C 93.349 164.145, 92.598 171.258, 85.008 209.500 C 81.319 228.085, 81.275 261.197, 84.924 273.500 C 89.417 288.648, 97.298 299.887, 109.406 308.412 C 126.419 320.390, 140.531 324.684, 166 325.629 C 204.596 327.062, 228.668 319.758, 247 301.051 C 254.955 292.933, 260.282 283.774, 263.379 272.888 C 267.873 257.092, 265.657 215.200, 258.995 190 C 258.486 188.075, 257.319 180.650, 256.401 173.500 C 254.839 161.338, 254.841 158.756, 256.425 133.436 C 258.577 99.040, 257.832 92.683, 250.888 86.193 C 242.736 78.574, 214.004 68.707, 193.375 66.442 L 187.250 65.770 184.375 71.135 L 181.500 76.500 173.859 76.790 L 166.217 77.080 163.928 72.290 C 160.643 65.419, 161.084 65.589, 150.500 67.101 M 149 76.798 C 147.075 76.990, 142.350 78.053, 138.500 79.159 C 134.650 80.264, 130.150 81.533, 128.500 81.977 C 114.962 85.623, 104.512 91.109, 101.789 96 C 100.009 99.197, 99.893 100.843, 100.441 115 C 100.771 123.525, 101.448 142.650, 101.944 157.500 C 102.878 185.456, 105.432 207.497, 110.053 227.500 C 112.474 237.978, 116.562 251.253, 118.556 255.109 C 120.123 258.138, 119.484 259.105, 114.724 260.915 C 112.175 261.884, 111.884 261.693, 109.851 257.723 C 108.662 255.400, 107.284 251.925, 106.788 250 C 106.293 248.075, 105.434 244.925, 104.880 243 C 102.182 233.630, 99.267 219.601, 98.592 212.744 C 98.043 207.162, 95.770 207.933, 94.223 214.224 C 92.956 219.382, 90.973 241.163, 91.011 249.500 C 91.041 255.959, 93.056 268.029, 95.184 274.500 C 100.904 291.889, 118.411 306.862, 139.666 312.540 C 168.215 320.168, 202.152 317.617, 224.297 306.179 C 232.889 301.741, 243.917 291.666, 247.876 284.637 C 254.296 273.239, 257.752 256.657, 256.630 242.634 C 254.798 219.743, 253.571 209.238, 252.617 208.284 C 251.551 207.218, 249.639 209.783, 249.293 212.742 C 248.964 215.566, 247.873 221.640, 246.105 230.500 C 244.619 237.951, 241.213 249.810, 238.853 255.750 C 236.545 261.560, 234.089 262.542, 230.103 259.250 C 228.219 257.693, 228.130 257.224, 229.299 255 C 230.779 252.185, 235.239 237.962, 236.904 230.750 C 237.507 228.137, 238.436 224.088, 238.969 221.750 C 239.502 219.412, 240.641 212.550, 241.500 206.500 C 242.359 200.450, 243.551 192.575, 244.148 189 C 245.220 182.585, 247.182 134.602, 247.392 109.677 L 247.500 96.854 243.474 93.100 C 240.954 90.750, 236.654 88.317, 231.974 86.593 C 227.863 85.079, 223.600 83.471, 222.500 83.020 C 221.400 82.569, 217.800 81.465, 214.500 80.567 C 211.200 79.669, 207.150 78.518, 205.500 78.009 C 203.850 77.499, 200.528 76.973, 198.118 76.838 C 194.318 76.626, 193.422 76.986, 191.373 79.547 L 189.010 82.500 189.001 120 C 188.993 155.651, 188.895 157.661, 187.005 160.759 C 181.557 169.696, 169.504 170.543, 162 162.516 L 159.500 159.842 159 121.671 C 158.485 82.320, 158.141 79.074, 154.298 77.284 C 153.309 76.824, 150.925 76.605, 149 76.798 M 169.989 99.250 C 168.174 102.228, 168.007 104.332, 168.004 124.346 C 168 144.831, 168.129 146.372, 170.068 149.096 C 172.636 152.703, 175.232 152.792, 177.927 149.365 C 179.883 146.880, 180 145.477, 179.996 124.615 C 179.993 104.332, 179.828 102.231, 178.011 99.250 C 176.823 97.302, 175.216 96, 174 96 C 172.784 96, 171.177 97.302, 169.989 99.250 M 165.781 194.208 L 165.500 206.500 157.750 206.317 C 152.289 206.188, 150 206.488, 150 207.333 C 150 209.080, 172.258 231, 174.031 231 C 175.938 231, 199.312 207.645, 198.359 206.692 C 197.968 206.302, 194.142 206.275, 189.856 206.632 L 182.064 207.282 181.782 194.891 L 181.500 182.500 173.781 182.208 L 166.062 181.917 165.781 194.208" stroke="none" fill="black" fill-rule="evenodd"/>
</svg>
