<svg xmlns="http://www.w3.org/2000/svg" width="100%" height="auto" viewBox="0 0 348 348" version="1.1">
	<path d="M 126.500 12.388 C 118.175 14.415, 111.937 18.146, 104.541 25.524 C 93.241 36.797, 87.990 48.838, 88.012 63.432 C 88.024 71.986, 89.533 79.253, 92.489 85 C 96.305 92.418, 102.026 99.661, 107.102 103.500 C 110.011 105.700, 113.724 108.774, 115.354 110.331 L 118.317 113.163 117.630 145.831 C 116.944 178.452, 116.278 193.056, 115.437 193.896 C 115.192 194.141, 113.981 193.414, 112.746 192.281 C 106.315 186.381, 81.984 173.501, 75.232 172.421 C 68.548 171.352, 62.353 172.752, 58.399 176.223 C 49.258 184.248, 47.525 198.529, 54.663 207.011 C 56.098 208.717, 59.799 211.716, 62.887 213.675 C 65.974 215.634, 70.441 218.812, 72.813 220.738 C 78.026 224.967, 86.598 237.587, 89.026 244.606 C 91.892 252.888, 97.798 261.051, 112.691 277.316 C 121.340 286.762, 121.327 286.713, 121.624 309.500 L 121.885 329.500 125.098 332.374 C 128.082 335.044, 128.744 335.211, 134.405 334.723 C 137.757 334.433, 142.725 333.193, 145.444 331.966 C 158.964 325.865, 180.336 323.481, 195.046 326.433 C 199.696 327.366, 207.935 329.900, 213.355 332.064 C 223.518 336.122, 227.661 336.787, 231.150 334.920 C 235.361 332.666, 236.107 328.168, 236.926 300.103 C 237.774 271.046, 237.062 275.091, 245.307 252.500 C 246.712 248.650, 249.355 239.875, 251.181 233 C 254.375 220.970, 254.497 219.823, 254.428 202.500 C 254.338 180.238, 251.596 152.564, 248.840 146.110 C 245.442 138.152, 239.059 133.040, 230.522 131.438 C 227.742 130.917, 224.871 129.067, 220.426 124.931 C 213.545 118.529, 209.755 117.014, 200.604 117.006 C 194.987 117, 194.477 116.784, 189.833 112.440 C 187.151 109.932, 183.423 107.239, 181.547 106.455 C 179.671 105.672, 177.861 104.584, 177.523 104.038 C 177.186 103.492, 179.251 99.997, 182.112 96.273 C 184.973 92.548, 188.333 87.204, 189.579 84.398 C 202.404 55.508, 185.852 22.048, 154.068 12.612 C 147.671 10.713, 133.840 10.600, 126.500 12.388 M 131.322 22.463 C 117.927 26.238, 108.147 33.893, 102.774 44.807 C 99.650 51.154, 99.500 51.984, 99.500 62.979 C 99.500 73.961, 99.653 74.813, 102.768 81.181 C 105.933 87.651, 113.686 96, 116.529 96 C 118.279 96, 118.826 91.546, 118.979 76.036 C 119.053 68.631, 119.579 60.400, 120.148 57.743 C 122.346 47.495, 131.469 40, 141.744 40 C 151.085 40, 158.904 45.053, 163.042 53.762 C 165.133 58.164, 165.279 59.716, 165.104 75.665 C 164.903 93.853, 165.254 95.273, 169.395 93.056 C 172.648 91.315, 179.733 80.212, 181.070 74.758 C 181.726 72.086, 182.062 65.742, 181.840 60.225 C 181.344 47.878, 178.667 41.848, 170.018 33.598 C 159.115 23.199, 144.070 18.869, 131.322 22.463 M 226.126 49.374 C 218.887 56.630, 214.231 62.024, 214.867 62.418 C 215.463 62.786, 219.337 62.781, 223.476 62.406 L 231 61.724 231 74.362 L 231 87 239.052 87 L 247.103 87 246.937 74.915 C 246.845 68.268, 247.159 62.446, 247.635 61.976 C 248.113 61.503, 251.628 61.514, 255.500 62 C 259.958 62.560, 262.861 62.522, 263.493 61.896 C 264.147 61.249, 260.266 56.833, 252.121 48.957 C 245.321 42.381, 239.467 37, 239.113 37 C 238.760 37, 232.915 42.568, 226.126 49.374 M 135.225 52.945 C 133.424 54.076, 131.511 56.155, 130.975 57.566 C 130.396 59.090, 130.004 77.652, 130.011 103.315 C 130.019 136.109, 129.534 153.839, 127.993 177 C 125.613 212.798, 124.911 219.211, 123.316 219.734 C 122.664 219.948, 117.495 215.328, 111.829 209.468 C 96.689 193.810, 89.602 188.854, 75.987 184.401 C 71.760 183.018, 70.897 183.016, 67.630 184.381 C 61.533 186.929, 60.086 194.572, 64.670 200.020 C 66.139 201.766, 70.752 205.592, 74.920 208.523 C 86.174 216.436, 89.203 220.117, 96.904 235.235 C 104.599 250.340, 111.909 260.705, 124.774 274.750 C 133.239 283.992, 134.502 284.802, 137.764 283.087 C 138.719 282.584, 142.578 281.224, 146.340 280.064 C 166.268 273.919, 188.793 275.010, 215.486 283.414 C 219.878 284.797, 223.782 285.607, 224.161 285.214 C 224.540 284.821, 225.333 280.983, 225.924 276.685 C 226.997 268.873, 228.277 264.579, 235.963 243 C 242.645 224.238, 243.271 221.004, 243.109 206.079 C 242.926 189.254, 239.449 155.163, 237.392 150.023 C 235.651 145.671, 230.737 142.666, 226.216 143.187 L 223.500 143.500 223.500 158 C 223.500 172.526, 223.065 175, 220.512 175 C 217.059 175, 216.326 172.320, 215.677 157.328 C 214.720 135.208, 212.429 129.404, 204.219 128.303 C 200.853 127.851, 199.793 128.213, 196.892 130.802 L 193.500 133.830 193 149.665 L 192.500 165.500 189.500 165.500 L 186.500 165.500 185.723 154 C 185.296 147.675, 184.692 138.342, 184.381 133.261 C 183.726 122.563, 181.575 118.170, 176.245 116.641 C 172.257 115.498, 164.603 118.126, 162.538 121.349 C 161.528 122.924, 161.031 128.944, 160.681 143.849 C 160.414 155.187, 159.765 164.635, 159.216 165.184 C 158.674 165.726, 157.166 166.019, 155.865 165.835 L 153.500 165.500 153.500 111.275 L 153.500 57.050 150.839 54.387 C 147.174 50.719, 139.848 50.042, 135.225 52.945 M 271 99.648 L 271 112.296 263.038 111.682 C 258.659 111.345, 254.840 111.450, 254.552 111.916 C 253.907 112.959, 277.583 136, 279.300 136 C 280.888 136, 303 113.857, 303 112.266 C 303 111.377, 300.909 111.224, 295 111.680 L 287 112.296 287 99.648 L 287 87 279 87 L 271 87 271 99.648 M 160.500 288.506 C 147.070 291.050, 136.500 295.709, 134.253 300.076 C 133.467 301.605, 133.098 305.784, 133.253 311.391 C 133.558 322.360, 134.532 323.425, 141.747 320.674 C 153.572 316.166, 162.995 314.621, 179 314.566 C 196.008 314.508, 202.291 315.660, 215.411 321.243 C 222.021 324.055, 222.443 324.115, 223.688 322.412 C 225.134 320.435, 225.554 301.421, 224.200 299.289 C 222.360 296.394, 203.924 290.693, 189.248 288.481 C 177.569 286.721, 169.892 286.727, 160.500 288.506" stroke="none" fill="black" fill-rule="evenodd"/>
</svg>
