<svg width="348" height="348" xmlns="http://www.w3.org/2000/svg" version="1.1">
 <g>
  <title>Layer 1</title>
  <path d="m111.5,30.005c-10.905,1.398 -21.467,6.37 -29.896,14.074c-9.827,8.982 -14.395,19.41 -15.31,34.956c-0.653,11.095 0.792,17.467 6.384,28.147c7.466,14.261 23.909,25.182 39.822,26.451c4.4,0.35 9.241,1.351 10.759,2.223c1.81,1.04 6.711,8.139 14.25,20.638c10.647,17.652 12.585,21.506 10.816,21.506c-0.371,0 -4.083,-1.202 -8.25,-2.672c-10.382,-3.661 -26.295,-3.902 -36.075,-0.544c-8.668,2.976 -14.976,6.738 -20.739,12.367c-9.433,9.216 -14.814,21.192 -15.906,35.397c-1.067,13.874 4.119,27.54 14.771,38.927c11.473,12.265 26.196,17.356 44.408,15.355c12.807,-1.407 24.864,-6.983 31.889,-14.745c2.644,-2.922 4.984,-2.607 9.324,1.253c5.839,5.193 14.575,8.892 37.046,15.682c11.154,3.37 14.999,6.103 19.306,13.721c5.81,10.277 15.093,24.727 16.708,26.009c0.867,0.688 3.452,1.25 5.747,1.25c5.137,0 9.557,-3.252 15.825,-11.642c7.945,-10.634 19.097,-20.059 30.548,-25.815c9.3,-4.675 15.057,-6.447 26.006,-8.003c11.35,-1.614 14.326,-2.644 16.466,-5.699c3.469,-4.954 2.289,-8.807 -8.225,-26.841c-12.605,-21.622 -14.296,-24.729 -16.147,-29.667c-1.065,-2.841 -2.66,-9.366 -3.544,-14.5c-1.866,-10.832 -8.701,-34.88 -12.155,-42.766c-3.914,-8.935 -15.136,-25.709 -31.749,-47.455c-10.685,-13.986 -19.896,-17.952 -32.696,-14.076c-5.629,1.704 -6.257,1.711 -11.26,0.134c-2.914,-0.918 -6.834,-1.66 -8.711,-1.648c-3.694,0.024 -10.284,2.683 -15.037,6.067c-2.652,1.888 -3.463,2 -7.37,1.016c-2.415,-0.608 -7.315,-1.105 -10.889,-1.105c-3.574,0 -6.746,-0.402 -7.05,-0.893c-0.304,-0.491 -0.058,-4.563 0.545,-9.047c2.381,-17.69 -5.51,-37.238 -18.914,-46.857c-13.174,-9.454 -26.248,-13.051 -40.697,-11.198m-3,10.929c-9.018,2.193 -16.662,7.349 -23.005,15.518c-10.414,13.411 -12.043,29.753 -4.45,44.636c2.848,5.583 11.223,14.199 16.616,17.096c6.519,3.501 15.245,5.339 17.003,3.581c1.058,-1.058 1.046,-1.746 -0.064,-3.779c-4.491,-8.228 -6.676,-12.083 -9.626,-16.986c-6.633,-11.021 -7.974,-14.618 -7.974,-21.382c0,-5.555 0.426,-7.024 3.25,-11.218c4.311,-6.401 11.775,-10.4 19.414,-10.4c10.735,0 16.112,4.527 26.847,22.604c4.702,7.918 9.176,14.396 9.942,14.396c2.405,0 3.809,-6.673 3.339,-15.868c-0.364,-7.134 -0.973,-9.673 -3.512,-14.632c-3.961,-7.738 -10.423,-15.807 -14.852,-18.544c-8.068,-4.987 -23.435,-7.33 -32.928,-5.022m2.716,31.343c-6.031,6.223 -5.184,10.522 5.246,26.63c4.136,6.388 30.364,50.469 36.052,60.593c14.113,25.12 32.486,61.386 32.486,64.124c0,1.934 -0.992,1.807 -16.598,-2.136c-16.877,-4.263 -26.353,-5.16 -37.503,-3.547c-10.165,1.47 -13.899,4.163 -13.899,10.024c0,7.826 4.696,10.547 20.696,11.993c15.485,1.4 21.536,3.575 32.664,11.742c3.223,2.365 6.304,4.3 6.846,4.3c0.542,0 2.18,0.833 3.64,1.852c5.608,3.914 40.273,16.16 45.7,16.145c0.525,-0.001 3.958,-3.555 7.629,-7.898c9,-10.645 20.535,-19.237 33.794,-25.173c10.176,-4.555 23.942,-9.024 32.361,-10.505c2.106,-0.37 4.037,-1.213 4.29,-1.873c0.253,-0.659 -0.896,-4.067 -2.554,-7.572c-2.888,-6.108 -4.37,-11.792 -9.114,-34.976c-2.618,-12.792 -6.345,-24.833 -9.222,-29.799c-3.327,-5.743 -15.831,-23.562 -24.99,-35.612c-10.018,-13.18 -14.409,-17.023 -19.293,-16.885c-4.049,0.115 -8.447,2.652 -8.447,4.873c0,0.842 3.375,6.491 7.5,12.553c4.125,6.062 7.5,11.647 7.5,12.411c0,0.764 -0.929,1.886 -2.064,2.493c-2.789,1.493 -4.012,0.357 -10.811,-10.034c-14.058,-21.487 -19.757,-25.863 -27.473,-21.094c-3.949,2.44 -4.652,3.793 -4.652,8.945c0,2.853 1.721,6.456 7.609,15.934c6.279,10.105 7.394,12.506 6.378,13.731c-0.678,0.816 -2.054,1.484 -3.059,1.484c-2.071,0 -3.216,-1.451 -15.381,-19.5c-4.819,-7.15 -9.481,-13.567 -10.359,-14.259c-3.165,-2.497 -8.255,-3.258 -11.293,-1.687c-3.358,1.737 -7.895,8.047 -7.895,10.981c0,1.794 13.919,27.229 18.41,33.639c2.454,3.504 2.046,6.673 -0.957,7.427c-1.4,0.352 -2.681,0.473 -2.846,0.269c-0.165,-0.203 -3.365,-5.545 -7.112,-11.87c-3.746,-6.325 -8.619,-14.425 -10.828,-18c-8.154,-13.198 -27.52,-45.945 -30.71,-51.929c-4.474,-8.394 -7.82,-11.071 -13.838,-11.071c-4.028,0 -5.196,0.484 -7.903,3.277m-91.09,25.097c-7.239,7.256 -11.895,12.65 -11.259,13.044c0.596,0.368 4.47,0.363 8.609,-0.012l7.524,-0.682l0,12.638l0,12.638l8,0l8,0l0,-12.441c0,-6.843 0.413,-12.696 0.917,-13.008c0.504,-0.311 3.988,-0.131 7.741,0.4c4.509,0.639 7.164,0.627 7.824,-0.033c0.666,-0.666 -3.027,-4.989 -11.072,-12.959c-6.64,-6.577 -12.492,-11.959 -13.006,-11.959c-0.514,0 -6.489,5.568 -13.278,12.374m5.579,75.254c-0.388,0.388 -0.705,6.097 -0.705,12.687l0,11.981l-8,-0.616c-6.137,-0.474 -8,-0.321 -8,0.657c0,1.74 22.339,23.663 24.113,23.663c1.694,0 23.887,-22.017 23.887,-23.699c0,-0.805 -2.404,-1.11 -7.75,-0.984l-7.75,0.183l0,-12l0,-12l-7.545,-0.288c-4.15,-0.159 -7.862,0.029 -8.25,0.416m82.721,12.244c-4.762,1.625 -11.934,5.492 -15.505,8.36c-3.769,3.027 -10.914,14.23 -12.461,19.541c-2.497,8.569 -1.689,21.938 1.783,29.48c7.02,15.248 25.805,26.141 41.757,24.214c12.826,-1.549 28.016,-10.867 22.885,-14.038c-0.613,-0.379 -6.8,-1.085 -13.749,-1.569c-11.213,-0.781 -13.139,-1.191 -17.135,-3.654c-6.483,-3.996 -9.947,-10.683 -9.978,-19.26c-0.019,-5.531 0.428,-7.265 2.864,-11.106c4.979,-7.853 14.253,-10.734 34.781,-10.807c14.345,-0.051 15.033,-0.917 7.385,-9.285c-10.637,-11.638 -28.633,-16.652 -42.627,-11.876m192.574,56.724c-33.234,8.846 -49.909,19.113 -63.271,38.958c-1.501,2.229 -2.729,4.883 -2.729,5.897c0,2.793 10.285,19.548 12,19.548c0.825,0 5.527,-4.338 10.449,-9.64c17.508,-18.858 33.885,-28.204 56.549,-32.271c7.259,-1.303 9.574,-2.102 9.822,-3.393c0.298,-1.546 -7.157,-14.803 -10.653,-18.945c-1.761,-2.086 -4.767,-2.124 -12.167,-0.154" fill="black" fill-rule="evenodd" id="svg_1" transform="rotate(89.6944, 172.978, 174.767)"/>
 </g>
</svg>
