<svg xmlns="http://www.w3.org/2000/svg" width="100%" height="auto" viewBox="0 0 348 348" version="1.1">
	<path d="M 126.500 12.388 C 118.214 14.405, 111.974 18.131, 104.541 25.500 C 97.012 32.963, 91.705 41.675, 89.390 50.368 C 87.650 56.904, 87.633 70.033, 89.356 76.500 C 91.997 86.410, 99.402 97.677, 107.102 103.500 C 110.011 105.700, 113.653 108.703, 115.195 110.173 L 118 112.846 117.954 130.173 C 117.892 153.339, 116.383 192.571, 115.500 194 C 115.017 194.781, 114.350 194.516, 113.407 193.170 C 111.572 190.552, 100.907 183.879, 88.522 177.601 C 79.081 172.816, 78.056 172.521, 70.843 172.511 C 63.774 172.501, 62.890 172.737, 59.343 175.589 C 49.422 183.565, 47.243 198.193, 54.663 207.011 C 56.098 208.717, 59.799 211.716, 62.887 213.675 C 65.974 215.634, 70.441 218.812, 72.813 220.738 C 78.026 224.967, 86.598 237.587, 89.026 244.606 C 91.892 252.888, 97.798 261.051, 112.691 277.316 C 121.342 286.764, 121.329 286.717, 121.640 309.500 L 121.913 329.500 124.973 332.250 C 129.167 336.020, 135.568 335.983, 145.273 332.132 C 160.493 326.092, 169.891 324.486, 185 325.343 C 196.929 326.019, 201.857 327.201, 214.262 332.358 C 226.940 337.628, 231.793 337.132, 234.659 330.273 C 235.772 327.609, 236.346 319.973, 236.926 300.103 C 237.774 271.046, 237.062 275.091, 245.307 252.500 C 246.712 248.650, 249.355 239.875, 251.181 233 C 254.381 220.948, 254.497 219.855, 254.407 202.500 C 254.290 179.924, 251.596 152.565, 248.858 146.145 C 245.378 137.989, 239.824 133.672, 229.437 131.049 C 226.658 130.348, 223.654 128.318, 219.933 124.627 C 213.843 118.585, 209.860 117.014, 200.604 117.006 C 194.987 117, 194.477 116.784, 189.833 112.440 C 187.151 109.932, 183.423 107.239, 181.547 106.455 C 179.671 105.672, 177.887 104.627, 177.582 104.133 C 177.277 103.640, 179.330 100.145, 182.144 96.368 C 184.957 92.591, 188.291 87.204, 189.552 84.398 C 202.466 55.652, 185.857 22.049, 154.068 12.612 C 147.671 10.713, 133.840 10.600, 126.500 12.388 M 131.322 22.463 C 117.927 26.238, 108.147 33.893, 102.774 44.807 C 99.650 51.154, 99.500 51.984, 99.500 62.979 C 99.500 73.961, 99.653 74.813, 102.768 81.181 C 105.933 87.651, 113.686 96, 116.529 96 C 118.279 96, 118.826 91.546, 118.979 76.036 C 119.053 68.631, 119.579 60.400, 120.148 57.743 C 122.346 47.495, 131.469 40, 141.744 40 C 151.085 40, 158.904 45.053, 163.042 53.762 C 165.133 58.164, 165.279 59.716, 165.104 75.665 C 164.972 87.602, 165.261 93.043, 166.053 93.533 C 167.962 94.712, 171.314 92.188, 175.159 86.677 C 180.883 78.472, 182.340 72.742, 181.798 60.562 C 181.223 47.624, 178.722 41.901, 170.018 33.598 C 159.115 23.199, 144.070 18.869, 131.322 22.463 M 228.968 40.750 C 225.404 44.462, 220.027 50.092, 217.019 53.259 L 211.550 59.019 223.509 71.009 C 230.087 77.604, 236.033 83, 236.722 83 C 237.638 83, 237.911 80.920, 237.737 75.250 L 237.500 67.500 249.750 67.219 L 262 66.938 262 58.866 L 262 50.794 249.500 51.147 C 241.748 51.366, 236.862 51.120, 236.638 50.500 C 236.438 49.950, 236.503 46.013, 236.781 41.750 C 237.068 37.335, 236.890 34, 236.366 34 C 235.860 34, 232.531 37.038, 228.968 40.750 M 135.225 53.004 C 133.424 54.102, 131.511 56.155, 130.975 57.566 C 130.396 59.089, 130 77.821, 130 103.713 C 130 136.901, 129.520 154.356, 127.989 176.898 C 125.231 217.475, 125.065 219.038, 123.429 219.666 C 122.559 219.999, 118.218 216.208, 111.929 209.620 C 97.212 194.206, 90.069 189.158, 76.413 184.522 C 68.203 181.735, 62 185.447, 62 193.146 C 62 197.934, 65.090 201.611, 74.920 208.523 C 86.174 216.436, 89.203 220.117, 96.904 235.235 C 104.599 250.340, 111.909 260.705, 124.774 274.750 C 133.239 283.992, 134.502 284.802, 137.764 283.087 C 138.719 282.584, 142.578 281.224, 146.340 280.064 C 166.252 273.924, 188.800 275.012, 215.431 283.397 C 219.793 284.771, 223.686 285.694, 224.082 285.449 C 224.479 285.204, 225.099 282.190, 225.461 278.752 C 226.215 271.579, 228.136 264.296, 231.724 255 C 235.261 245.839, 239.726 232.556, 241.642 225.500 C 243.849 217.371, 243.590 197.974, 240.939 173 C 238.517 150.178, 237.127 145.857, 231.623 144.041 C 229.650 143.389, 227.014 143.001, 225.767 143.178 C 223.530 143.496, 223.500 143.691, 223.500 158 C 223.500 172.526, 223.065 175, 220.512 175 C 217.054 175, 216.324 172.325, 215.695 157.338 C 214.987 140.483, 213.280 133.152, 209.343 130.055 C 205.534 127.059, 200.716 127.389, 196.766 130.915 L 193.500 133.830 193 149.665 L 192.500 165.500 189.500 165.500 L 186.500 165.500 185.723 154 C 185.296 147.675, 184.692 138.342, 184.381 133.261 C 183.726 122.563, 181.575 118.170, 176.245 116.641 C 172.253 115.496, 164.594 118.130, 162.553 121.349 C 161.573 122.894, 161.020 129.265, 160.592 143.952 C 160.264 155.200, 159.599 164.801, 159.113 165.287 C 158.628 165.772, 157.166 166.019, 155.865 165.835 L 153.500 165.500 153.500 111.406 C 153.500 52.619, 153.774 55.486, 147.872 52.434 C 144 50.431, 139.081 50.653, 135.225 53.004 M 284.847 85.750 C 284.762 86.162, 284.650 89.650, 284.597 93.500 L 284.500 100.500 274 100.577 C 268.225 100.619, 262.694 100.731, 261.708 100.827 C 260.126 100.980, 259.950 101.910, 260.208 108.750 L 260.500 116.500 272.891 116.782 L 285.282 117.064 284.618 125.032 C 284.093 131.325, 284.233 133, 285.282 133 C 287.060 133, 309 110.695, 309 108.887 C 309 107.466, 287.119 85, 285.734 85 C 285.330 85, 284.931 85.338, 284.847 85.750 M 160.360 288.407 C 151.254 290.148, 146.729 291.649, 140.500 294.996 C 133.858 298.565, 132.960 300.598, 133.256 311.393 C 133.557 322.361, 134.531 323.426, 141.747 320.674 C 153.572 316.166, 162.995 314.621, 179 314.566 C 195.976 314.508, 202.297 315.662, 215.302 321.196 C 224.614 325.159, 225.004 324.754, 224.985 311.128 C 224.976 305.282, 224.623 299.955, 224.200 299.289 C 222.666 296.876, 206.060 291.340, 193.500 289.055 C 183.407 287.218, 168.141 286.920, 160.360 288.407" stroke="none" fill="black" fill-rule="evenodd"/>
</svg>
