<svg xmlns="http://www.w3.org/2000/svg" width="100%" height="auto" viewBox="0 0 348 348" version="1.1">
	<path d="M 111.500 30.005 C 100.595 31.403, 90.033 36.375, 81.604 44.079 C 71.777 53.061, 67.209 63.489, 66.294 79.035 C 65.641 90.130, 67.086 96.502, 72.678 107.182 C 80.144 121.443, 96.587 132.364, 112.500 133.633 C 116.900 133.983, 121.741 134.984, 123.259 135.856 C 125.069 136.896, 129.970 143.995, 137.509 156.494 C 148.156 174.146, 150.094 178, 148.325 178 C 147.954 178, 144.242 176.798, 140.075 175.328 C 129.693 171.667, 113.780 171.426, 104 174.784 C 95.332 177.760, 89.024 181.522, 83.261 187.151 C 73.828 196.367, 68.447 208.343, 67.355 222.548 C 66.288 236.422, 71.474 250.088, 82.126 261.475 C 93.599 273.740, 108.322 278.831, 126.534 276.830 C 139.341 275.423, 151.398 269.847, 158.423 262.085 C 161.067 259.163, 163.407 259.478, 167.747 263.338 C 173.586 268.531, 182.322 272.230, 204.793 279.020 C 215.947 282.390, 219.792 285.123, 224.099 292.741 C 229.909 303.018, 239.192 317.468, 240.807 318.750 C 241.674 319.438, 244.259 320, 246.554 320 C 251.691 320, 256.111 316.748, 262.379 308.358 C 270.324 297.724, 281.476 288.299, 292.927 282.543 C 302.227 277.868, 307.984 276.096, 318.933 274.540 C 330.283 272.926, 333.259 271.896, 335.399 268.841 C 338.868 263.887, 337.688 260.034, 327.174 242 C 314.569 220.378, 312.878 217.271, 311.027 212.333 C 309.962 209.492, 308.367 202.967, 307.483 197.833 C 305.617 187.001, 298.782 162.953, 295.328 155.067 C 291.414 146.132, 280.192 129.358, 263.579 107.612 C 252.894 93.626, 243.683 89.660, 230.883 93.536 C 225.254 95.240, 224.626 95.247, 219.623 93.670 C 216.709 92.752, 212.789 92.010, 210.912 92.022 C 207.218 92.046, 200.628 94.705, 195.875 98.089 C 193.223 99.977, 192.412 100.089, 188.505 99.105 C 186.090 98.497, 181.190 98, 177.616 98 C 174.042 98, 170.870 97.598, 170.566 97.107 C 170.262 96.616, 170.508 92.544, 171.111 88.060 C 173.492 70.370, 165.601 50.822, 152.197 41.203 C 139.023 31.749, 125.949 28.152, 111.500 30.005 M 108.500 40.934 C 99.482 43.127, 91.838 48.283, 85.495 56.452 C 75.081 69.863, 73.452 86.205, 81.045 101.088 C 83.893 106.671, 92.268 115.287, 97.661 118.184 C 104.180 121.685, 112.906 123.523, 114.664 121.765 C 115.722 120.707, 115.710 120.019, 114.600 117.986 C 110.109 109.758, 107.924 105.903, 104.974 101 C 98.341 89.979, 97 86.382, 97 79.618 C 97 74.063, 97.426 72.594, 100.250 68.400 C 104.561 61.999, 112.025 58, 119.664 58 C 130.399 58, 135.776 62.527, 146.511 80.604 C 151.213 88.522, 155.687 95, 156.453 95 C 158.858 95, 160.262 88.327, 159.792 79.132 C 159.428 71.998, 158.819 69.459, 156.280 64.500 C 152.319 56.762, 145.857 48.693, 141.428 45.956 C 133.360 40.969, 117.993 38.626, 108.500 40.934 M 111.216 72.277 C 105.185 78.500, 106.032 82.799, 116.462 98.907 C 120.598 105.295, 146.826 149.376, 152.514 159.500 C 166.627 184.620, 185 220.886, 185 223.624 C 185 225.558, 184.008 225.431, 168.402 221.488 C 151.525 217.225, 142.049 216.328, 130.899 217.941 C 120.734 219.411, 117 222.104, 117 227.965 C 117 235.791, 121.696 238.512, 137.696 239.958 C 153.181 241.358, 159.232 243.533, 170.360 251.700 C 173.583 254.065, 176.664 256, 177.206 256 C 177.748 256, 179.386 256.833, 180.846 257.852 C 186.454 261.766, 221.119 274.012, 226.546 273.997 C 227.071 273.996, 230.504 270.442, 234.175 266.099 C 243.175 255.454, 254.710 246.862, 267.969 240.926 C 278.145 236.371, 291.911 231.902, 300.330 230.421 C 302.436 230.051, 304.367 229.208, 304.620 228.548 C 304.873 227.889, 303.724 224.481, 302.066 220.976 C 299.178 214.868, 297.696 209.184, 292.952 186 C 290.334 173.208, 286.607 161.167, 283.730 156.201 C 280.403 150.458, 267.899 132.639, 258.740 120.589 C 248.722 107.409, 244.331 103.566, 239.447 103.704 C 235.398 103.819, 231 106.356, 231 108.577 C 231 109.419, 234.375 115.068, 238.500 121.130 C 242.625 127.192, 246 132.777, 246 133.541 C 246 134.305, 245.071 135.427, 243.936 136.034 C 241.147 137.527, 239.924 136.391, 233.125 126 C 219.067 104.513, 213.368 100.137, 205.652 104.906 C 201.703 107.346, 201 108.699, 201 113.851 C 201 116.704, 202.721 120.307, 208.609 129.785 C 214.888 139.890, 216.003 142.291, 214.987 143.516 C 214.309 144.332, 212.933 145, 211.928 145 C 209.857 145, 208.712 143.549, 196.547 125.500 C 191.728 118.350, 187.066 111.933, 186.188 111.241 C 183.023 108.744, 177.933 107.983, 174.895 109.554 C 171.537 111.291, 167 117.601, 167 120.535 C 167 122.329, 180.919 147.764, 185.410 154.174 C 187.864 157.678, 187.456 160.847, 184.453 161.601 C 183.053 161.953, 181.772 162.074, 181.607 161.870 C 181.442 161.667, 178.242 156.325, 174.495 150 C 170.749 143.675, 165.876 135.575, 163.667 132 C 155.513 118.802, 136.147 86.055, 132.957 80.071 C 128.483 71.677, 125.137 69, 119.119 69 C 115.091 69, 113.923 69.484, 111.216 72.277 M 20.126 97.374 C 12.887 104.630, 8.231 110.024, 8.867 110.418 C 9.463 110.786, 13.337 110.781, 17.476 110.406 L 25 109.724 25 122.362 L 25 135 33 135 L 41 135 41 122.559 C 41 115.716, 41.413 109.863, 41.917 109.551 C 42.421 109.240, 45.905 109.420, 49.658 109.951 C 54.167 110.590, 56.822 110.578, 57.482 109.918 C 58.148 109.252, 54.455 104.929, 46.410 96.959 C 39.770 90.382, 33.918 85, 33.404 85 C 32.890 85, 26.915 90.568, 20.126 97.374 M 25.705 172.628 C 25.317 173.016, 25 178.725, 25 185.315 L 25 197.296 17 196.680 C 10.863 196.206, 9 196.359, 9 197.337 C 9 199.077, 31.339 221, 33.113 221 C 34.807 221, 57 198.983, 57 197.301 C 57 196.496, 54.596 196.191, 49.250 196.317 L 41.500 196.500 41.500 184.500 L 41.500 172.500 33.955 172.212 C 29.805 172.053, 26.093 172.241, 25.705 172.628 M 108.426 184.872 C 103.664 186.497, 96.492 190.364, 92.921 193.232 C 89.152 196.259, 82.007 207.462, 80.460 212.773 C 77.963 221.342, 78.771 234.711, 82.243 242.253 C 89.263 257.501, 108.048 268.394, 124 266.467 C 136.826 264.918, 152.016 255.600, 146.885 252.429 C 146.272 252.050, 140.085 251.344, 133.136 250.860 C 121.923 250.079, 119.997 249.669, 116.001 247.206 C 109.518 243.210, 106.054 236.523, 106.023 227.946 C 106.004 222.415, 106.451 220.681, 108.887 216.840 C 113.866 208.987, 123.140 206.106, 143.668 206.033 C 158.013 205.982, 158.701 205.116, 151.053 196.748 C 140.416 185.110, 122.420 180.096, 108.426 184.872 M 301 241.596 C 267.766 250.442, 251.091 260.709, 237.729 280.554 C 236.228 282.783, 235 285.437, 235 286.451 C 235 289.244, 245.285 305.999, 247 305.999 C 247.825 305.999, 252.527 301.661, 257.449 296.359 C 274.957 277.501, 291.334 268.155, 313.998 264.088 C 321.257 262.785, 323.572 261.986, 323.820 260.695 C 324.118 259.149, 316.663 245.892, 313.167 241.750 C 311.406 239.664, 308.400 239.626, 301 241.596" stroke="none" fill="black" fill-rule="evenodd"/>
</svg>
