<?xml version="1.0" standalone="no"?>
<!DOCTYPE svg PUBLIC "-//W3C//DTD SVG 20010904//EN"
 "http://www.w3.org/TR/2001/REC-SVG-20010904/DTD/svg10.dtd">
<svg version="1.0" xmlns="http://www.w3.org/2000/svg"
 width="348.000000pt" height="348.000000pt" viewBox="0 0 348.000000 348.000000"
 preserveAspectRatio="xMidYMid meet">
<g transform="translate(0.000000,348.000000) scale(0.100000,-0.100000)"
fill="#000000" stroke="none">
<path d="M1423 3360 c0 -25 2 -35 4 -22 2 12 2 32 0 45 -2 12 -4 2 -4 -23z"/>
<path d="M1608 3253 c-71 -69 -128 -131 -128 -136 0 -6 26 -6 68 -1 37 4 78 8
91 8 l25 1 -3 -105 c-2 -58 -4 -116 -5 -130 -1 -25 0 -25 77 -27 46 0 80 3 84
10 3 6 5 61 4 124 -1 62 0 116 2 121 3 4 42 3 86 -2 44 -5 84 -7 87 -3 5 5
-248 267 -258 267 -2 0 -60 -57 -130 -127z m210 6 c26 -27 46 -53 44 -56 -2
-3 7 -11 19 -17 39 -19 36 -37 -6 -33 -71 8 -96 -45 -85 -181 3 -34 2 -66 -2
-70 -4 -4 -28 -6 -53 -4 l-45 4 0 112 c0 135 -7 147 -82 140 -27 -3 -48 -3
-48 -1 0 3 39 43 87 90 99 98 94 97 171 16z"/>
<path d="M1575 2820 c4 -6 -14 -10 -47 -10 -30 0 -80 -7 -111 -15 -32 -8 -69
-15 -82 -15 -14 0 -25 -4 -25 -10 0 -5 -16 -10 -35 -10 -19 0 -35 -4 -35 -10
0 -5 -3 -9 -7 -8 -17 3 -83 -15 -83 -23 0 -5 -11 -9 -25 -9 -14 0 -25 -4 -25
-8 0 -4 -22 -16 -49 -27 -28 -10 -48 -23 -45 -27 3 -4 0 -8 -6 -8 -17 0 -70
-56 -70 -74 0 -9 -4 -16 -9 -16 -4 0 -11 -24 -15 -52 -8 -70 5 -458 15 -433 4
11 8 -50 8 -135 0 -86 -3 -149 -8 -142 -5 8 -11 -24 -15 -80 -4 -51 -8 -99 -8
-105 -1 -7 -5 -13 -10 -13 -4 0 -8 -24 -8 -52 0 -35 -3 -48 -9 -39 -6 9 -11
-5 -14 -45 -3 -32 -10 -86 -16 -119 -6 -33 -11 -98 -12 -144 -1 -52 -4 -78
-10 -70 -5 9 -9 -36 -9 -113 0 -78 4 -129 10 -133 6 -4 10 -14 9 -23 -4 -30
13 -122 22 -122 5 0 9 -14 9 -31 0 -17 4 -28 10 -24 6 3 10 -5 10 -19 0 -13 7
-31 15 -40 8 -8 15 -22 15 -30 0 -9 5 -16 10 -16 6 0 10 -5 10 -11 0 -6 6 -17
12 -24 30 -33 38 -45 38 -55 0 -5 4 -10 8 -10 5 0 18 -9 30 -20 12 -12 22 -18
22 -15 0 3 6 0 14 -7 8 -7 12 -16 9 -20 -2 -5 3 -8 12 -8 8 0 18 -7 21 -15 4
-8 15 -15 25 -15 10 0 19 -4 19 -10 0 -5 6 -10 14 -10 8 0 16 -3 18 -7 5 -13
68 -43 89 -43 11 0 17 -5 14 -10 -4 -6 6 -10 22 -10 16 0 34 -5 40 -11 5 -5
35 -13 66 -16 31 -3 54 -10 51 -14 -3 -5 25 -9 61 -9 42 0 64 -4 60 -10 -4 -7
53 -10 165 -10 112 0 169 3 165 10 -4 6 18 10 59 10 37 0 66 4 66 10 0 6 3 9
8 8 16 -4 102 14 107 23 4 5 17 9 31 9 13 0 24 5 24 10 0 6 12 10 26 10 16 0
23 4 18 12 -4 6 -3 8 4 4 12 -7 62 13 62 26 0 4 7 8 15 8 8 0 15 4 15 9 0 5 8
12 18 15 9 3 33 19 52 36 19 16 38 30 43 30 4 0 7 5 7 10 0 6 20 30 44 53 24
23 46 53 50 65 4 12 12 22 17 22 5 0 9 11 9 25 0 14 5 25 10 25 6 0 10 9 10
19 0 11 3 21 8 23 16 7 42 119 43 189 1 52 3 67 9 49 5 -16 8 16 8 85 -1 73
-3 97 -8 70 -4 -27 -8 7 -11 105 -5 147 -27 310 -41 310 -4 0 -8 23 -8 50 0
28 -4 50 -10 50 -5 0 -10 15 -10 34 0 19 -7 71 -16 117 -18 93 -16 261 6 489
13 137 9 295 -9 313 -6 6 -11 17 -11 24 0 15 -75 93 -89 93 -13 0 -75 33 -79
43 -2 4 -17 7 -33 7 -17 0 -28 4 -25 9 4 5 -12 12 -34 16 -22 4 -42 11 -46 16
-3 5 -21 9 -40 9 -19 0 -34 4 -34 9 0 5 -17 11 -37 14 -21 3 -56 10 -78 16
-22 6 -65 11 -97 11 -35 0 -58 5 -61 13 -4 9 -8 9 -15 -2 -8 -11 -10 -11 -15
0 -3 8 -6 2 -6 -13 -1 -16 -5 -28 -10 -28 -9 0 -26 -48 -23 -62 1 -5 -39 -8
-88 -8 -89 0 -90 0 -90 25 0 14 -5 25 -11 25 -5 0 -7 5 -4 10 3 6 1 10 -4 10
-6 0 -11 5 -11 11 0 6 -6 17 -14 25 -16 16 -40 19 -31 4z m32 -70 c7 -19 12
-31 12 -27 1 4 13 -5 27 -20 14 -15 22 -21 18 -13 -7 13 -5 13 8 2 12 -9 39
-12 88 -9 61 3 73 7 88 28 9 13 17 26 17 29 5 41 16 48 68 43 29 -2 59 -5 67
-5 8 0 20 -5 26 -9 6 -5 30 -10 52 -11 23 -1 39 -5 37 -9 -3 -4 10 -7 28 -7
19 0 53 -9 76 -20 23 -12 48 -19 55 -16 8 3 16 -2 19 -10 4 -9 14 -12 26 -9
12 3 21 1 21 -5 0 -5 13 -12 29 -15 16 -3 36 -13 45 -22 9 -9 16 -13 16 -9 0
3 7 1 15 -6 8 -7 15 -9 15 -5 0 4 16 -12 34 -37 53 -69 60 -117 45 -311 -10
-136 -13 -515 -5 -567 2 -14 12 -61 21 -105 10 -44 20 -99 22 -122 3 -24 9
-43 13 -43 4 0 8 -10 8 -22 1 -43 11 -129 17 -139 4 -5 8 -94 11 -198 3 -145
0 -206 -11 -262 -9 -41 -17 -81 -18 -91 -2 -9 -9 -23 -16 -32 -8 -9 -11 -16
-7 -16 4 0 0 -13 -9 -30 -9 -16 -18 -30 -21 -30 -3 0 -2 5 2 12 4 7 3 8 -5 4
-6 -4 -9 -11 -6 -16 7 -11 -13 -51 -29 -62 -6 -4 -11 -12 -11 -18 0 -6 -5 -14
-11 -18 -6 -4 -14 -15 -17 -25 -4 -11 -16 -21 -27 -24 -11 -3 -17 -9 -14 -14
3 -5 1 -9 -4 -9 -8 0 -21 -9 -68 -49 -7 -5 -15 -7 -18 -4 -3 4 -6 1 -6 -7 0
-10 -3 -10 -15 0 -13 11 -15 10 -12 -1 2 -8 2 -11 0 -6 -6 9 -23 9 -22 0 3
-21 -2 -33 -16 -33 -8 0 -15 -5 -15 -11 0 -6 -6 -9 -14 -6 -7 3 -23 -1 -34 -8
-10 -8 -22 -11 -26 -8 -3 3 -6 0 -6 -7 0 -7 -3 -11 -6 -8 -5 6 -39 -2 -76 -17
-11 -4 -18 -3 -18 5 0 6 5 8 13 4 8 -5 8 -2 -2 9 -12 15 -9 21 12 18 4 0 7 3
7 7 0 5 6 9 13 10 14 1 51 10 55 12 1 2 5 3 10 4 31 8 51 19 47 27 -3 5 1 6 9
3 9 -4 16 -1 16 6 0 7 7 10 16 6 9 -4 27 6 46 27 17 17 27 25 23 17 -4 -8 5
-1 20 15 14 17 24 23 20 15 -4 -8 1 -6 9 5 44 56 52 64 63 65 6 0 15 5 19 12
5 7 3 8 -7 3 -11 -7 -11 -5 1 11 8 10 22 24 30 31 8 7 11 13 7 13 -7 0 0 10
31 45 6 7 12 25 12 40 0 14 4 24 9 21 5 -4 8 5 6 19 -1 14 1 25 5 25 6 0 19
62 22 110 0 8 4 20 9 25 7 9 4 155 -5 250 -5 54 -16 161 -21 209 -7 54 -28 77
-60 62 -29 -13 -44 -49 -46 -116 -1 -19 -6 -46 -12 -60 -5 -14 -11 -36 -13
-50 -4 -31 -12 -65 -15 -65 -1 0 -3 -11 -4 -25 -3 -25 -12 -63 -15 -67 -2 -2
-3 -6 -4 -10 -1 -5 -5 -14 -9 -20 -5 -7 -5 -17 -2 -23 3 -6 1 -10 -5 -10 -6 0
-9 -4 -6 -9 3 -5 -1 -14 -8 -21 -8 -6 -13 -20 -11 -30 2 -12 -2 -17 -12 -16
-27 4 -32 28 -12 63 11 19 16 39 13 45 -5 7 -2 8 6 3 10 -6 12 -4 7 7 -3 9 0
21 6 27 6 6 8 11 4 11 -4 0 -1 13 8 30 8 16 15 31 14 32 -2 3 11 72 16 88 1 3
5 28 9 55 4 28 10 57 13 65 3 8 7 20 9 25 1 6 6 19 10 29 5 14 4 17 -5 11 -10
-6 -11 -3 -1 14 6 13 11 48 11 79 0 31 5 75 11 97 16 58 17 78 22 325 2 124 8
261 12 305 11 124 7 290 -7 317 -7 13 -13 27 -14 32 0 5 -16 18 -35 29 -19 10
-37 23 -38 28 -2 5 -8 7 -13 3 -5 -3 -9 0 -9 6 0 6 -4 9 -9 5 -5 -3 -12 -1
-16 5 -4 6 -11 8 -16 5 -5 -4 -9 -1 -9 6 0 6 -8 9 -20 6 -11 -3 -18 -1 -14 4
3 5 -2 10 -10 10 -24 2 -30 4 -43 12 -16 10 -193 57 -225 60 -15 1 -32 7 -39
14 -13 13 -84 -21 -93 -44 -4 -9 -1 -11 7 -7 6 4 3 -3 -7 -15 -11 -12 -22 -30
-25 -39 -10 -34 -12 -694 -2 -688 11 7 9 -6 -8 -56 -8 -26 -22 -41 -49 -54
-45 -22 -53 -23 -71 -10 -11 8 -13 8 -7 -1 4 -7 2 -13 -3 -13 -6 0 -11 5 -11
11 0 6 -7 9 -15 5 -8 -3 -15 0 -15 6 0 6 -3 9 -6 6 -9 -9 -38 24 -51 57 -8 21
-12 142 -11 387 0 273 -2 361 -12 373 -7 8 -9 15 -5 15 4 0 2 6 -4 13 -6 8 -7
17 -3 21 4 4 2 6 -5 4 -6 -1 -11 1 -11 7 -1 12 -34 24 -47 17 -18 -11 -50 -10
-64 2 -11 8 -13 8 -8 0 9 -16 -26 -24 -48 -11 -11 6 -15 6 -12 0 4 -6 -22 -18
-56 -28 -74 -22 -66 -19 -100 -33 -15 -7 -39 -15 -53 -18 -13 -3 -27 -10 -30
-15 -3 -5 -14 -9 -25 -9 -22 0 -113 -49 -105 -57 3 -3 -5 -15 -17 -27 -12 -11
-24 -28 -27 -36 -6 -20 -8 -272 -2 -284 5 -8 7 -56 16 -406 3 -102 13 -230 21
-285 9 -55 18 -121 20 -147 2 -26 9 -56 15 -68 6 -11 8 -24 5 -29 -3 -5 0 -22
5 -37 6 -15 12 -45 15 -67 2 -22 7 -43 12 -46 5 -3 8 -16 7 -29 -1 -12 1 -22
5 -22 3 0 7 -12 8 -26 0 -15 7 -30 15 -35 7 -5 9 -9 4 -9 -4 0 0 -12 10 -27
11 -19 13 -24 3 -16 -8 7 -20 8 -28 4 -9 -6 -8 -10 7 -13 11 -3 27 -19 36 -35
14 -27 13 -30 -2 -30 -23 0 -43 29 -31 43 6 8 2 13 -13 17 -12 4 -19 9 -15 13
3 4 0 19 -8 34 -8 15 -12 30 -9 33 3 3 -2 27 -11 54 -9 26 -17 58 -17 71 0 12
-4 22 -8 22 -7 0 -10 19 -10 63 0 16 -6 42 -14 58 -10 20 -11 31 -4 35 7 5 8
2 3 -6 -6 -9 -4 -11 4 -6 9 6 8 13 -6 29 -13 14 -14 18 -3 13 8 -4 4 2 -9 13
-37 33 -65 27 -81 -16 -7 -21 -12 -52 -11 -70 1 -17 -3 -42 -9 -54 -10 -17 -9
-20 1 -14 8 6 10 4 4 -5 -12 -19 -16 -68 -19 -215 -1 -79 2 -136 8 -144 9 -12
8 -13 -4 -6 -13 7 -13 6 -2 -7 7 -8 9 -24 5 -33 -5 -14 -3 -16 8 -10 12 8 12
6 0 -8 -11 -13 -11 -17 -1 -17 8 0 10 -3 7 -7 -4 -3 1 -15 10 -26 13 -15 14
-18 3 -12 -12 7 -11 3 3 -18 9 -15 15 -27 13 -27 -3 0 1 -12 9 -27 8 -15 11
-31 8 -36 -3 -6 -1 -7 5 -3 8 5 12 0 12 -13 0 -11 10 -27 22 -35 12 -9 19 -16
16 -16 -4 0 11 -18 32 -40 22 -23 40 -45 40 -50 0 -5 7 -6 17 -3 9 4 14 2 10
-3 -3 -6 3 -16 15 -23 16 -10 19 -10 12 1 -4 7 8 -2 26 -20 19 -17 40 -32 47
-32 7 0 13 -5 13 -12 0 -6 3 -8 7 -5 3 4 12 2 20 -4 7 -6 13 -8 13 -3 0 5 4 3
9 -4 4 -7 17 -15 27 -17 10 -2 20 -4 22 -4 1 -1 4 -1 8 0 3 0 15 -6 27 -14 12
-8 34 -14 47 -13 14 1 28 -2 31 -7 18 -26 395 -42 499 -23 79 15 86 15 98 -5
10 -15 10 -19 0 -20 -19 -1 -49 -6 -83 -14 -16 -4 -115 -8 -220 -8 -152 0
-203 4 -255 18 -36 10 -72 19 -80 20 -8 1 -28 7 -43 14 -16 6 -35 11 -43 11
-8 0 -14 5 -14 11 0 6 -7 9 -15 5 -8 -3 -15 -1 -15 4 0 6 -9 10 -20 10 -11 0
-20 5 -20 10 0 6 -3 9 -7 8 -14 -5 -73 24 -68 32 3 5 -5 12 -17 16 -13 4 -25
10 -28 13 -3 4 -18 14 -33 24 -15 10 -25 22 -23 26 3 4 -6 13 -19 19 -22 10
-30 28 -26 54 0 4 -5 5 -12 2 -7 -2 -21 11 -31 31 -11 19 -24 35 -30 35 -6 0
-4 5 4 10 11 7 11 10 2 10 -16 0 -45 67 -36 82 5 7 3 8 -5 4 -8 -5 -11 -3 -10
5 2 8 -2 24 -9 36 -6 12 -11 32 -11 45 1 13 -2 34 -5 48 -9 32 -8 225 0 358 6
87 10 107 28 124 12 12 16 18 11 15 -14 -8 -17 31 -3 39 6 4 8 2 4 -4 -3 -6
-2 -13 3 -16 5 -4 8 2 6 11 -1 10 -8 17 -14 16 -15 -4 -13 20 5 92 17 63 29
121 41 195 5 25 7 155 5 290 -4 311 -5 541 -1 558 1 6 6 12 11 12 5 0 7 4 4 9
-7 11 40 58 65 66 11 4 17 10 14 15 -3 4 5 6 17 3 13 -3 20 -2 16 2 -11 12 67
55 105 58 9 1 17 4 17 8 0 4 19 10 43 14 23 4 47 11 52 15 12 9 54 19 109 26
33 4 38 3 32 -11 -3 -10 -2 -14 5 -10 5 4 7 16 3 27 -3 11 -2 18 3 15 5 -3 24
-2 43 3 19 5 53 8 75 7 36 -2 41 -5 52 -37z m-32 -86 c12 -29 14 -101 14 -393
1 -197 5 -369 10 -382 20 -52 80 -89 143 -89 52 0 101 28 128 72 19 31 20 51
20 408 l0 375 24 30 c20 25 29 29 67 27 24 -2 58 -7 74 -12 17 -5 57 -17 90
-26 33 -8 67 -19 75 -23 8 -4 43 -16 78 -27 68 -21 149 -75 170 -114 9 -18 11
-59 8 -150 -3 -69 -9 -255 -14 -415 -5 -159 -14 -317 -20 -350 -6 -33 -18
-114 -27 -180 -9 -66 -21 -136 -26 -155 -4 -19 -16 -66 -25 -105 -18 -81 -48
-175 -70 -223 -9 -19 -14 -35 -12 -37 6 -5 67 -35 72 -35 20 0 84 192 111 331
20 100 26 136 26 154 0 27 25 59 39 50 6 -4 10 -14 9 -23 -1 -10 1 -42 4 -72
25 -214 30 -315 17 -414 -7 -55 -17 -105 -21 -110 -5 -6 -9 -17 -9 -25 0 -8
-16 -47 -36 -87 -49 -99 -148 -194 -264 -252 -47 -23 -93 -42 -102 -42 -9 0
-19 -4 -22 -9 -3 -4 -22 -11 -43 -14 -21 -3 -81 -13 -133 -21 -110 -18 -270
-20 -356 -6 -173 29 -254 50 -279 72 -5 4 -15 8 -22 8 -24 0 -152 89 -198 137
-104 109 -164 272 -165 448 0 95 20 305 35 357 9 35 10 48 1 52 -8 3 -8 5 0 5
18 1 39 -29 41 -58 3 -48 14 -116 23 -141 5 -14 12 -41 15 -60 4 -19 11 -50
16 -67 5 -18 14 -50 20 -70 13 -47 40 -114 52 -130 7 -10 17 -9 45 3 20 8 38
16 39 18 2 2 -7 28 -21 57 -13 30 -27 65 -30 79 -4 14 -18 68 -31 120 -55 211
-85 445 -96 765 -5 149 -12 338 -15 420 -5 136 -4 153 14 185 10 19 28 40 38
45 10 6 30 17 44 25 26 14 132 55 185 70 158 46 232 60 258 48 9 -5 24 -25 32
-44z m292 -221 c-2 -32 -3 -8 -3 52 0 61 1 87 3 58 2 -29 2 -78 0 -110z m188
-2123 c-3 -5 -2 -10 3 -10 6 0 8 -9 5 -20 -4 -16 -8 -18 -19 -9 -10 8 -11 16
-3 30 5 10 12 19 15 19 3 0 2 -4 -1 -10z"/>
<path d="M1125 2650 c-3 -5 1 -10 10 -10 9 0 13 5 10 10 -3 6 -8 10 -10 10 -2
0 -7 -4 -10 -10z"/>
<path d="M1672 2618 c-2 -10 -8 -15 -13 -12 -10 6 -12 -96 -3 -121 5 -13 8
-14 15 -3 7 10 9 9 9 -3 0 -18 37 -33 45 -19 3 5 19 4 37 -1 32 -9 64 4 53 21
-3 5 -1 11 4 15 14 8 10 96 -6 120 -7 11 -13 16 -13 11 0 -5 -6 -4 -12 2 -7 5
-35 10 -62 9 -38 0 -50 -4 -54 -19z m124 -34 c3 -12 4 -36 2 -55 l-3 -34 -55
0 -55 0 -3 34 c-7 66 1 76 58 76 43 0 52 -3 56 -21z"/>
<path d="M1720 2536 c0 -2 7 -7 16 -10 8 -3 12 -2 9 4 -6 10 -25 14 -25 6z"/>
<path d="M1740 2421 c0 -6 -6 -8 -14 -5 -21 8 -64 -41 -72 -81 -3 -19 -4 -72
-3 -119 4 -77 6 -86 32 -110 16 -15 32 -24 37 -21 5 3 19 1 30 -5 16 -8 20 -8
18 2 -2 7 2 12 9 11 7 -2 21 10 31 25 16 22 20 46 21 124 3 117 -7 141 -71
179 -12 6 -18 6 -18 0z m42 -48 c26 -23 27 -217 1 -245 -20 -22 -61 -23 -85
-1 -26 23 -27 217 -1 245 20 22 61 23 85 1z"/>
<path d="M1755 2050 c-3 -5 -22 -9 -42 -8 -24 1 -40 -4 -49 -17 -30 -41 -6
-137 37 -150 17 -6 19 -9 8 -17 -10 -7 -9 -8 6 -3 11 4 31 8 44 10 13 1 27 8
31 15 4 7 13 9 20 5 8 -5 11 -4 6 3 -3 6 -1 23 6 39 6 15 10 32 9 36 -1 4 -2
19 -3 33 -2 17 -11 28 -35 36 -17 6 -30 15 -27 20 3 4 3 8 0 8 -3 0 -8 -4 -11
-10z m37 -45 c24 -32 -15 -115 -54 -115 -39 0 -75 89 -48 116 13 13 93 12 102
-1z"/>
<path d="M1309 2623 c-13 -16 -12 -17 4 -4 9 7 17 15 17 17 0 8 -8 3 -21 -13z"/>
<path d="M1655 1660 c-4 -6 -5 -66 -3 -133 3 -117 2 -122 -17 -120 -11 1 -48
5 -82 9 -38 4 -63 3 -63 -3 0 -14 240 -255 250 -251 17 6 260 250 256 257 -3
4 -42 2 -88 -5 -46 -7 -85 -10 -87 -8 -6 6 -2 224 4 234 10 16 -23 27 -92 29
-43 1 -74 -2 -78 -9z m128 -140 c-2 -65 1 -110 6 -110 5 0 12 -9 16 -19 5 -17
12 -19 56 -14 27 3 49 3 49 0 0 -12 -163 -167 -177 -167 -8 0 -11 5 -7 12 5 8
2 9 -12 4 -10 -4 -15 -4 -12 0 4 3 -5 17 -19 30 -14 13 -22 24 -18 24 4 0 2 7
-5 15 -7 8 -15 13 -19 11 -3 -2 -19 14 -35 36 l-29 41 26 -7 c31 -7 79 2 72
14 -3 5 -1 11 5 15 6 4 10 52 10 116 l0 109 48 0 49 0 -4 -110z"/>
<path d="M970 1146 c0 -2 8 -10 18 -17 15 -13 16 -12 3 4 -13 16 -21 21 -21
13z"/>
<path d="M2246 982 c-3 -5 1 -9 9 -9 8 0 12 4 9 9 -3 4 -7 8 -9 8 -2 0 -6 -4
-9 -8z"/>
<path d="M1051 863 c-1 -17 16 -25 25 -12 4 7 3 9 -4 5 -5 -3 -13 0 -15 6 -4
9 -6 10 -6 1z"/>
<path d="M2485 821 c-3 -5 -2 -12 3 -15 5 -3 9 1 9 9 0 17 -3 19 -12 6z"/>
<path d="M990 746 c0 -2 7 -7 16 -10 8 -3 12 -2 9 4 -6 10 -25 14 -25 6z"/>
<path d="M2345 569 c-4 -6 -5 -12 -2 -15 2 -3 7 2 10 11 7 17 1 20 -8 4z"/>
<path d="M1332 427 c-8 -10 -6 -13 7 -13 11 0 17 6 14 13 -3 7 -6 13 -8 13 -1
0 -7 -6 -13 -13z"/>
<path d="M2143 425 c0 -8 4 -12 9 -9 5 3 6 10 3 15 -9 13 -12 11 -12 -6z"/>
<path d="M2586 543 c-6 -14 -5 -15 5 -6 7 7 10 15 7 18 -3 3 -9 -2 -12 -12z"/>
</g>
</svg>
